<svg width="207" height="48" viewBox="0 0 207 48" fill="none" xmlns="http://www.w3.org/2000/svg">
<path fill-rule="evenodd" clip-rule="evenodd" d="M9.47755 10.9011L9.38979 10.8132C8.51224 9.93407 7.45918 9.05495 5.2653 9.05495C3.24694 9.05495 0.52653 10.3736 0.52653 13.978C0.52653 14.1211 0.531841 14.2617 0.542208 14.3997C0.204196 15.0577 0 15.8519 0 16.7912C0 19.2528 1.49184 22.6813 6.0551 22.6813C9.38979 22.6813 11.4959 20.7473 13.0755 18.9011L20.9735 8.7033C21.1275 8.51172 21.2796 8.32176 21.4301 8.13391L21.5 8.04657L21.5699 8.13391C21.7204 8.32176 21.8725 8.51172 22.0265 8.7033L29.9245 18.9011C31.5041 20.7473 33.6102 22.6813 36.9449 22.6813C41.5082 22.6813 43 19.2528 43 16.7912C43 15.9298 42.8283 15.1904 42.5391 14.5662C42.5537 14.403 42.5612 14.2362 42.5612 14.0659C42.5612 10.4615 39.8408 9.14285 37.8224 9.14285C35.6286 9.14285 34.5755 10.022 33.698 10.9011L33.6102 10.989L34.6633 12.1319L34.751 12.044L34.8556 11.9495C35.6795 11.2043 36.3063 10.6374 37.8224 10.6374C39.3996 10.6374 41.6834 11.4239 41.9259 13.5924C40.9487 12.4108 39.4775 11.8681 38.2612 11.8681C37.0327 11.8681 36.1551 12.1319 35.1898 12.7473L36.1551 13.978C36.223 13.9508 36.295 13.9194 36.3723 13.8858C36.7944 13.7018 37.3711 13.4506 38.2612 13.4506C40.0646 13.4506 41.1371 14.2099 41.7343 15.0357C41.0654 16.6163 38.9753 17.4066 37.7347 17.4066C36.4184 17.4066 35.3653 17.0549 33.9612 15.3846L26.0633 5.18681C25.7386 4.79043 25.4186 4.41637 25.1016 4.06477C26.0543 3.28532 27.0224 2.81319 28.0816 2.81319C28.2658 2.81319 28.4422 2.82394 28.6111 2.84473C28.9709 3.63018 29.1347 4.53059 29.1347 5.36264C29.1347 5.89011 29.0469 6.41758 28.6959 6.85714L29.9245 7.82418C30.6265 6.85714 30.7143 6.06593 30.7143 5.27473C30.7143 4.72802 30.6462 4.21279 30.5177 3.73448C31.3886 4.58694 31.7673 5.92601 31.7673 7.2967C31.7673 7.82418 31.6796 8.43956 31.3286 8.87912L32.4694 9.84616C33.3469 8.87912 33.3469 7.64835 33.3469 7.20879C33.3469 4.56311 31.8567 3.06197 29.9974 2.48075C29.091 0.929789 27.4002 0 25.3612 0C23.9401 0 22.6703 0.336812 21.4561 1.00306C20.2419 0.336812 18.9721 0 17.551 0C15.4968 0 13.7959 0.943761 12.8946 2.51569C11.0859 3.12076 9.65306 4.61453 9.65306 7.20879C9.65306 7.64835 9.65306 8.87912 10.5306 9.84616L11.6714 8.87912C11.3204 8.43956 11.2327 7.82418 11.2327 7.2967C11.2327 5.99029 11.5767 4.71259 12.363 3.85756C12.2549 4.30083 12.198 4.7746 12.198 5.27472C12.198 5.97802 12.2857 6.76923 12.9878 7.73626L14.3041 6.94505C13.9531 6.50549 13.8653 5.97802 13.8653 5.45055C13.8653 4.58413 14.0577 3.6436 14.4667 2.83592C14.6118 2.82091 14.7623 2.81319 14.9184 2.81319C15.9589 2.81319 16.9113 3.26875 17.8478 4.02367C17.5186 4.38718 17.1863 4.77494 16.849 5.18681L8.95102 15.3846C7.54694 17.0549 6.49388 17.4066 5.17755 17.4066C3.9572 17.4066 1.91476 16.6419 1.21179 15.1124C1.79739 14.2575 2.87971 13.4506 4.73878 13.4506C5.79184 13.4506 6.40612 13.7143 6.75714 13.978L7.8102 12.7473C6.8449 12.1319 6.0551 11.8681 4.73878 11.8681C3.48058 11.8681 1.94957 12.4489 0.974812 13.7169C1.14217 11.454 3.48281 10.6374 5.08979 10.6374C6.60594 10.6374 7.23277 11.2043 8.05667 11.9495L8.16122 12.044L8.24898 12.1319L9.47755 10.9011ZM19.0513 5.14981C18.759 5.50247 18.4641 5.86757 18.1653 6.24176L10.2673 16.4396C8.77551 18.2857 7.37143 18.989 5.35306 18.989C3.49319 18.989 1.57926 17.7973 0.842105 15.7966C0.680029 16.1914 0.614286 16.5506 0.614286 16.7912C0.614286 18.2857 1.93061 21.0989 6.0551 21.0989C8.24898 21.0989 9.91632 20.1319 11.8469 17.8462L19.7449 7.64835C19.9889 7.34282 20.2289 7.04924 20.4659 6.76783C19.9848 6.18395 19.5163 5.63823 19.0513 5.14981ZM21.5 5.601C20.9734 5.04092 20.4548 4.54629 19.9327 4.11988C20.4551 3.53257 20.973 2.9971 21.494 2.53322C22.0212 2.99297 22.5449 3.52721 23.0726 4.11552C22.5487 4.54292 22.0284 5.03901 21.5 5.601ZM22.5341 6.76783C22.7711 7.04924 23.0111 7.34282 23.2551 7.64835L31.1531 17.8462C33.0837 20.1319 34.751 21.0989 36.9449 21.0989C41.0694 21.0989 42.3857 18.2857 42.3857 16.7912C42.3857 16.5833 42.3367 16.287 42.2188 15.9557C41.4629 17.9134 39.5724 19.0769 37.7347 19.0769C35.7163 19.0769 34.3122 18.3736 32.8204 16.5275L24.9224 6.32967C24.5964 5.92136 24.2749 5.52388 23.9565 5.14155C23.489 5.63208 23.0179 6.18066 22.5341 6.76783ZM18.6259 3.20493C17.4872 2.54232 16.2888 2.1978 14.9184 2.1978L14.8583 2.19806C15.4732 1.36714 16.3875 0.791208 17.6388 0.791208C18.6005 0.791208 19.5036 1.11968 20.3824 1.68663C19.7941 2.11298 19.2125 2.61938 18.6259 3.20493ZM28.0816 2.1978C26.689 2.1978 25.474 2.55358 24.3188 3.2374C23.728 2.64487 23.1424 2.13258 22.5502 1.70143C23.4779 1.07163 24.4306 0.703297 25.449 0.703297C26.7448 0.703297 27.658 1.32097 28.2512 2.19987C28.1947 2.19849 28.1382 2.1978 28.0816 2.1978Z" fill="#004D7E"/>
<path fill-rule="evenodd" clip-rule="evenodd" d="M9.47755 37.0989L9.38979 37.1868C8.51224 38.0659 7.45918 38.9451 5.2653 38.9451C3.24694 38.9451 0.52653 37.6264 0.52653 34.022C0.52653 33.8789 0.531841 33.7383 0.542208 33.6003C0.204196 32.9423 0 32.1481 0 31.2088C0 28.7473 1.49184 25.3187 6.0551 25.3187C9.38979 25.3187 11.4959 27.2528 13.0755 29.0989L20.9735 39.2967C21.1243 39.4843 21.2734 39.6704 21.4208 39.8545L21.5 39.9534L21.5699 39.8661C21.7204 39.6782 21.8725 39.4883 22.0265 39.2967L29.9245 29.0989C31.5041 27.2527 33.6102 25.3187 36.9449 25.3187C41.5082 25.3187 43 28.7473 43 31.2088C43 32.1481 42.7958 32.9423 42.4578 33.6003C42.4681 33.7384 42.4735 33.8789 42.4735 34.022C42.4735 37.6264 39.7531 38.9451 37.7347 38.9451C35.5408 38.9451 34.4877 38.0659 33.6102 37.1868L33.5224 37.0989L34.6633 35.8681L34.751 35.956L34.8556 36.0505C35.6795 36.7957 36.3063 37.3626 37.8224 37.3626C39.3996 37.3626 41.6834 36.576 41.9259 34.4076C40.9487 35.5892 39.4775 36.1319 38.2612 36.1319C37.0327 36.1319 36.1551 35.8681 35.1898 35.2528L36.1551 34.022C36.2229 34.0491 36.2949 34.0805 36.372 34.1141C36.7942 34.2981 37.3711 34.5494 38.2612 34.5494C40.0646 34.5494 41.1371 33.7901 41.7343 32.9643C41.0654 31.3837 38.9753 30.5934 37.7347 30.5934C36.4184 30.5934 35.3653 30.9451 33.9612 32.6154L26.0633 42.8132C25.7386 43.2096 25.4186 43.5836 25.1016 43.9352C26.0543 44.7147 27.0224 45.1868 28.0816 45.1868C28.2658 45.1868 28.4422 45.1761 28.6111 45.1553C28.9709 44.3698 29.1347 43.4694 29.1347 42.6374C29.1347 42.1099 29.0469 41.5824 28.6959 41.1429L29.9245 40.1758C30.6265 41.1429 30.7143 41.9341 30.7143 42.7253C30.7143 43.272 30.6462 43.7872 30.5177 44.2655C31.3886 43.4131 31.7673 42.074 31.7673 40.7033C31.7673 40.1758 31.6796 39.5604 31.3286 39.1209L32.4694 38.1538C33.3469 39.1209 33.3469 40.3516 33.3469 40.7912C33.3469 43.4369 31.8567 44.938 29.9974 45.5192C29.091 47.0702 27.4002 48 25.3612 48C23.9401 48 22.6703 47.6632 21.4561 46.9969C20.2419 47.6632 18.9721 48 17.551 48C15.4968 48 13.7959 47.0562 12.8946 45.4843C11.0859 44.8792 9.65306 43.3855 9.65306 40.7912C9.65306 40.3517 9.65306 39.1209 10.5306 38.1538L11.6714 39.1209C11.3204 39.5604 11.2327 40.1758 11.2327 40.7033C11.2327 42.0097 11.5767 43.2874 12.363 44.1424C12.2549 43.6992 12.198 43.2254 12.198 42.7253C12.198 42.022 12.2857 41.2308 12.9878 40.2637L14.2163 41.1429C13.8653 41.5824 13.7776 42.1099 13.7776 42.6374C13.7776 43.4666 13.9538 44.3637 14.3275 45.1472C14.5149 45.1733 14.7118 45.1868 14.9184 45.1868C15.9589 45.1868 16.9113 44.7313 17.8478 43.9763C17.5186 43.6128 17.1863 43.2251 16.849 42.8132L8.95102 32.6154C7.54694 30.9451 6.49388 30.5934 5.17755 30.5934C3.9572 30.5934 1.91476 31.3581 1.21179 32.8876C1.79739 33.7425 2.87971 34.5494 4.73878 34.5494C5.79184 34.5494 6.40612 34.2857 6.75714 34.022L7.8102 35.2527C6.8449 35.8681 6.0551 36.1319 4.73878 36.1319C3.48058 36.1319 1.94958 35.5511 0.974812 34.2831C1.14218 36.546 3.48281 37.3626 5.08979 37.3626C6.60594 37.3626 7.23277 36.7957 8.05668 36.0505L8.16122 35.956L8.24898 35.8681L9.47755 37.0989ZM19.0513 42.8502C18.759 42.4975 18.4641 42.1324 18.1653 41.7582L10.2673 31.5604C8.77551 29.7143 7.37143 29.011 5.35306 29.011C3.49319 29.011 1.57926 30.2027 0.842104 32.2034C0.680029 31.8086 0.614286 31.4494 0.614286 31.2088C0.614286 29.7143 1.93061 26.9011 6.0551 26.9011C8.24898 26.9011 9.91632 27.8681 11.8469 30.1538L19.7449 40.3516C19.9889 40.6572 20.2289 40.9508 20.4659 41.2322C19.9848 41.8161 19.5163 42.3618 19.0513 42.8502ZM18.6259 44.7951C17.4872 45.4577 16.2888 45.8022 14.9184 45.8022C14.8473 45.8022 14.7762 45.8011 14.7051 45.7989C15.3199 46.6785 16.2546 47.2967 17.551 47.2967C18.5528 47.2967 19.491 46.9403 20.4044 46.3292C19.8086 45.8996 19.2198 45.3879 18.6259 44.7951ZM19.9327 43.8801C20.4548 43.4537 20.9734 42.9591 21.5 42.399C22.0266 42.9591 22.5452 43.4537 23.0673 43.8801C22.5429 44.4697 22.023 45.007 21.5 45.4721C20.977 45.007 20.4571 44.4697 19.9327 43.8801ZM22.5341 41.2322C23.0152 41.8161 23.4837 42.3618 23.9486 42.8502C24.2409 42.4975 24.5359 42.1324 24.8347 41.7582L32.7326 31.5604C34.2245 29.7143 35.6286 29.011 37.6469 29.011C39.5068 29.011 41.4207 30.2027 42.1579 32.2034C42.32 31.8086 42.3857 31.4494 42.3857 31.2088C42.3857 29.7143 41.0694 26.9011 36.9449 26.9011C34.751 26.9011 33.0837 27.8681 31.1531 30.1538L23.2551 40.3517C23.0111 40.6572 22.7711 40.9508 22.5341 41.2322ZM22.5502 46.2986C23.1424 45.8674 23.728 45.3551 24.3188 44.7626C25.474 45.4464 26.689 45.8022 28.0816 45.8022C28.1382 45.8022 28.1947 45.8015 28.2512 45.8001C27.658 46.679 26.7448 47.2967 25.449 47.2967C24.4306 47.2967 23.4779 46.9284 22.5502 46.2986Z" fill="#004D7E"/>
<path d="M20.8857 14.4176C21.6755 14.7692 21.7633 16.0879 21.7633 17.0549L21.7633 22.7692H18.6041V16.1758H21.3245C21.3245 16 21.3245 15.7363 21.2367 15.5604H16.3224C15.9714 15.5604 15.8837 15.6484 15.8837 15.7363C15.8837 15.8242 15.9714 15.9121 16.1469 16C16.9367 16.4396 16.9367 17.3187 16.9367 19.0769V27.0769C16.9367 30.1538 16.4102 31.2088 15.8837 31.3846C15.6204 31.4725 15.4449 31.5604 15.4449 31.6483C15.4449 31.7363 15.4449 31.7363 15.6204 31.7363C15.6713 31.7363 15.7443 31.7289 15.848 31.7184C16.1019 31.6927 16.54 31.6483 17.2878 31.6483H21.0612C21.1105 31.5496 21.1321 31.4509 21.1571 31.3366C21.1766 31.2474 21.1983 31.1486 21.2367 31.033C21.0486 31.033 20.8605 31.0077 20.686 30.9843C20.5347 30.964 20.3936 30.9451 20.2714 30.9451C18.8673 30.9451 18.7796 30.1538 18.7796 26.6374V23.2967H21.149C21.3461 23.2967 21.5518 23.2967 21.7633 23.2987V27.7802C21.7633 29.7143 21.6755 32.3517 20.6225 33.2308C20.4469 33.3187 20.2714 33.4066 20.2714 33.4945C20.2714 33.5824 20.3592 33.5824 20.5347 33.5824C20.5812 33.5824 20.6652 33.5762 20.7871 33.5672L20.7881 33.5671L20.7902 33.5669C21.1297 33.5417 21.7643 33.4945 22.7286 33.4945C23.5479 33.4945 24.1864 33.5399 24.5461 33.5654C24.6871 33.5755 24.7853 33.5824 24.8347 33.5824C25.0102 33.5824 25.098 33.5824 25.098 33.4945C25.098 33.4066 25.0102 33.3187 24.8347 33.2308C23.7816 32.7033 23.7816 30.5055 23.7816 27.7802V23.4317C25.657 23.7129 27.3796 24.5798 27.3796 27.2527C27.3796 29.5385 26.151 30.5934 24.3082 30.8571C24.3082 30.989 24.3301 31.0989 24.352 31.2088C24.374 31.3187 24.3959 31.4286 24.3959 31.5604C24.6592 31.5604 24.8347 31.5604 25.098 31.4725C26.8531 31.3846 29.398 29.8901 29.398 27.1648C29.4857 24 25.9755 23.3846 24.0449 23.2088C25.098 23.1209 28.2571 22.2418 28.2571 19.4286C28.2571 17.1429 26.6775 16.2638 24.2204 15.8242C24.2204 16.0879 24.2204 16.3517 24.1327 16.5275C25.5367 16.967 26.151 17.9341 26.151 19.3407C26.151 21.4965 25.0717 22.3007 23.7816 22.598V17.1429C23.7816 16 23.8694 14.7692 24.6592 14.5055C24.7469 14.4176 24.8347 14.3297 24.8347 14.2418C24.8347 14.0659 24.4837 14.0659 24.3959 14.0659C24.1327 14.0659 23.8474 14.0879 23.5622 14.1099C23.277 14.1319 22.9918 14.1538 22.7286 14.1538C22.1616 14.1538 21.7411 14.1171 21.4435 14.0912C21.2805 14.0769 21.1544 14.0659 21.0612 14.0659C20.798 14.0659 20.7102 14.0659 20.7102 14.2418C20.7102 14.2961 20.7437 14.3168 20.79 14.3455C20.8187 14.3632 20.8522 14.384 20.8857 14.4176Z" fill="#004D7E"/>
<path d="M105.619 12.3281L105.619 12.327C105.659 12.2166 105.705 12.0904 105.758 11.956L106.11 10.8132C104.615 9.58242 102.769 8.96703 100.659 8.96703C96.6155 8.96703 93.0111 11.5165 93.0111 16.0879C93.0111 20.4835 96.8792 22.8571 100.659 22.8571C102.594 22.8571 104.615 22.3297 106.198 21.0989L105.846 19.8681C105.832 19.7971 105.82 19.7353 105.81 19.6815C105.756 19.4025 105.744 19.3407 105.67 19.3407C105.616 19.3407 105.595 19.4078 105.567 19.5006C105.549 19.558 105.528 19.6252 105.495 19.6923C104.791 21.0989 103.121 22.3297 100.572 22.3297C96.8792 22.3297 95.0331 19.3407 95.0331 15.8242C95.0331 12.1319 97.0551 9.49451 100.572 9.49451C102.594 9.49451 104.44 10.1978 105.231 12.5714L105.407 12.7473C105.468 12.7473 105.529 12.578 105.619 12.3281Z" fill="#004D7E"/>
<path fill-rule="evenodd" clip-rule="evenodd" d="M69.0111 16L67.9561 18.4615C67.6045 19.2527 67.2528 20.3077 67.2528 21.0989C67.2528 21.4505 67.4286 21.8022 67.6924 21.978C67.7741 22.0597 67.8748 22.1225 67.9592 22.175C68.0564 22.2356 68.1319 22.2826 68.1319 22.3297C68.1319 22.4176 68.044 22.4176 67.8682 22.4176H65.4946C65.3187 22.4176 65.2308 22.4176 65.2308 22.3297C65.2308 22.2684 65.359 22.1643 65.4665 22.0772C65.5131 22.0393 65.5559 22.0046 65.5825 21.978C66.2676 21.2072 66.8693 19.8524 67.2251 19.0515L67.2528 18.989L71.5605 9.14286C71.5605 9.05494 71.6484 9.05494 71.6484 9.05494C71.7363 9.05494 71.7363 9.14286 71.7363 9.14286L76.5715 20.7472C76.8353 21.2747 77.1869 21.8901 77.6265 22.2418C77.8023 22.3297 77.8902 22.4176 77.8902 22.5055C77.8902 22.5055 77.8902 22.5934 77.7144 22.5934H74.5495C74.5056 22.5934 74.4836 22.5934 74.4726 22.5824C74.4616 22.5714 74.4616 22.5494 74.4616 22.5055C74.4616 22.4176 74.6374 22.3297 74.8133 22.2418C74.9891 22.1538 75.077 21.978 75.077 21.5385C75.077 21.011 74.7253 19.956 74.2858 18.9011L73.2308 16H69.0111ZM71.2089 11.0769L69.2748 15.4725H73.055L71.2089 11.0769Z" fill="#004D7E"/>
<path fill-rule="evenodd" clip-rule="evenodd" d="M53.5385 9.58242C54.2418 9.93407 54.2418 10.6374 54.2418 12.044V18.5495C54.2418 21.011 53.8023 21.8901 53.3627 22.0659C53.2679 22.1292 53.1957 22.1697 53.1423 22.1997C53.0471 22.2531 53.011 22.2734 53.011 22.3297C53.011 22.4176 53.0111 22.4176 53.099 22.4176C53.1209 22.4176 53.1648 22.4121 53.2305 22.4039C53.4283 22.3792 53.8242 22.3297 54.4176 22.3297H56.7034C57.0802 22.3297 57.4571 22.3549 57.8069 22.3784C58.1099 22.3986 58.3926 22.4176 58.6374 22.4176C59.3407 22.4176 60.1319 22.4176 60.9231 22.3297C62.3297 22.2418 64.4396 21.0989 64.4396 18.8132C64.4396 16.0879 61.6264 15.5604 60.044 15.3846C60.9231 15.3846 63.4726 14.6813 63.4726 12.3956C63.4726 9.75824 60.8352 9.31868 57.1429 9.31868H53.7143C53.4506 9.31868 53.3627 9.4066 53.3627 9.4066C53.3627 9.46093 53.3963 9.48168 53.4427 9.51036C53.4714 9.52809 53.5049 9.54884 53.5385 9.58242ZM58.1979 15.1209H55.6484V9.75824H58.1979C60.6594 9.75824 61.8023 10.6374 61.8023 12.3077C61.8023 14.9451 59.7803 15.1209 58.1979 15.1209ZM56.8792 21.8901C55.7363 21.8901 55.6484 21.1868 55.6484 18.3736H55.7363V15.6484H57.7583C59.7803 15.6484 62.8572 15.6484 62.8572 18.9011C62.8572 20.8352 61.7143 21.8022 60.044 21.8901C59.2528 21.978 58.8132 21.978 58.3737 21.978C58.11 21.978 57.8682 21.9561 57.6265 21.9341C57.3847 21.9121 57.1429 21.8901 56.8792 21.8901Z" fill="#004D7E"/>
<path d="M80.0001 9.49451C80.7913 9.84616 80.8792 10.6374 80.8792 11.6923V18.8132C80.8792 20.5714 80.7034 21.4506 80.1759 21.978C80.0726 22.133 79.8782 22.2273 79.7355 22.2965C79.6353 22.3451 79.5605 22.3813 79.5605 22.4176C79.5605 22.5055 79.6484 22.5055 79.7364 22.5055C79.8092 22.5055 80.0027 22.4904 80.2294 22.4727C80.55 22.4478 80.937 22.4176 81.1429 22.4176C81.544 22.4176 81.9077 22.4549 82.161 22.4809C82.2965 22.4948 82.4004 22.5055 82.4616 22.5055C82.4616 22.5055 82.5495 22.5055 82.5495 22.4176C82.5495 22.3613 82.5135 22.341 82.4183 22.2876C82.3648 22.2576 82.2927 22.2171 82.1979 22.1539C81.8462 21.8901 81.4067 21.2747 81.4067 19.1648V10.9011C83.6045 13.5537 86.0638 16.9903 87.9958 19.6902L87.9991 19.6949C88.307 20.1251 88.6014 20.5365 88.8792 20.9231C89.292 21.5079 89.5704 21.9315 89.7667 22.2301C90.0718 22.6944 90.1788 22.8571 90.2858 22.8571C90.3737 22.8571 90.4616 21.978 90.4616 20.9231V12.6593C90.4616 10.4615 90.9012 9.84615 91.3408 9.67033C91.4151 9.59602 91.4737 9.55312 91.5166 9.52171C91.5752 9.4788 91.6045 9.45735 91.6045 9.4066C91.6045 9.31868 91.6045 9.23077 91.3408 9.23077C91.1649 9.23077 90.9671 9.25275 90.7693 9.27473C90.5715 9.29671 90.3737 9.31868 90.1979 9.31868C90.066 9.31868 89.8243 9.29671 89.5825 9.27473C89.3408 9.25275 89.099 9.23077 88.9671 9.23077C88.7913 9.23077 88.7034 9.31868 88.7034 9.4066C88.7034 9.45055 88.7474 9.47253 88.8133 9.5055C88.8792 9.53846 88.9671 9.58242 89.055 9.67033C89.4946 10.022 89.9342 10.8132 89.9342 12.5714V19.3407L84.4836 12.1319C83.6924 11.1648 83.077 10.2857 82.4616 9.23077H81.2309C80.9616 9.23077 80.6263 9.19778 80.3666 9.17222C80.2023 9.15605 80.0682 9.14286 80.0001 9.14286C79.8243 9.14286 79.8243 9.23077 79.8243 9.31868C79.8243 9.4066 79.9122 9.49451 80.0001 9.49451Z" fill="#004D7E"/>
<path fill-rule="evenodd" clip-rule="evenodd" d="M111.385 16L110.33 18.4615C109.978 19.2527 109.626 20.3077 109.626 21.0989C109.626 21.4505 109.802 21.8022 110.066 21.978C110.148 22.0597 110.248 22.1225 110.333 22.175C110.43 22.2356 110.506 22.2826 110.506 22.3297C110.506 22.4176 110.418 22.4176 110.242 22.4176H107.868C107.692 22.4176 107.605 22.4176 107.605 22.3297C107.605 22.2684 107.733 22.1643 107.84 22.0772C107.887 22.0393 107.93 22.0046 107.956 21.978C108.641 21.2072 109.243 19.8524 109.599 19.0515L109.626 18.989L113.934 9.14286C113.934 9.05494 114.022 9.05494 114.022 9.05494C114.11 9.05494 114.11 9.14286 114.11 9.14286L118.945 20.7472C119.209 21.2747 119.561 21.8901 120 22.2418C120.176 22.3297 120.264 22.4176 120.264 22.5055C120.264 22.5055 120.264 22.5934 120.088 22.5934H116.923C116.879 22.5934 116.857 22.5934 116.846 22.5824C116.835 22.5714 116.835 22.5495 116.835 22.5056C116.835 22.4177 117.011 22.3297 117.187 22.2418C117.363 22.1538 117.451 21.978 117.451 21.5385C117.451 21.011 117.099 19.956 116.659 18.9011L115.605 16.1758L111.385 16ZM113.583 11.0769L111.648 15.4725H115.429L113.583 11.0769Z" fill="#004D7E"/>
<path fill-rule="evenodd" clip-rule="evenodd" d="M127.561 12.044C127.561 10.1978 127.297 9.84616 126.857 9.58242C126.834 9.55886 126.81 9.54162 126.788 9.52561C126.729 9.48188 126.681 9.4474 126.681 9.31868C126.681 9.23077 126.769 9.14286 127.209 9.14286H132.835C137.407 9.14286 139.692 12.2198 139.692 15.4725C139.692 19.1648 137.319 21.8901 133.627 22.2418C133.407 22.2418 133.165 22.2637 132.923 22.2857C132.681 22.3077 132.44 22.3297 132.22 22.3297C132.032 22.3297 131.764 22.3136 131.457 22.2953C131.046 22.2706 130.563 22.2418 130.11 22.2418H128C127.462 22.2418 127.047 22.2824 126.78 22.3084C126.654 22.3206 126.562 22.3297 126.506 22.3297C126.418 22.3297 126.418 22.3297 126.418 22.2418C126.418 22.1874 126.451 22.1667 126.498 22.138C126.526 22.1203 126.56 22.0995 126.594 22.0659C127.561 21.4506 127.648 21.011 127.648 18.9011V12.044H127.561ZM128.967 18.6374C128.967 21.1868 129.319 21.7143 130.11 21.8022C130.901 21.8901 131.517 21.8901 131.956 21.8901C132.396 21.8901 132.835 21.8901 133.363 21.8022C136 21.5385 137.67 20.044 137.67 15.4725C137.67 11.1648 135.912 9.67033 132.22 9.67033H128.967V18.6374Z" fill="#004D7E"/>
<path d="M142.066 9.93407C142.594 9.93407 142.945 10.5494 142.945 11.4286C142.945 12.7473 141.89 14.3297 141.627 14.3297C141.627 14.3297 141.539 14.3297 141.539 14.2418V14.1538C141.978 13.4506 142.242 12.9231 142.242 12.044C141.714 12.044 141.187 11.8681 141.187 11.0769C141.187 10.4615 141.451 9.93407 142.066 9.93407Z" fill="#004D7E"/>
<path d="M147.077 11.3407C147.077 10.7253 147.077 9.84616 146.462 9.58242C146.374 9.58242 146.374 9.49451 146.374 9.4066C146.374 9.31868 146.462 9.31868 146.637 9.31868C146.699 9.31868 146.781 9.32935 146.889 9.34325C147.09 9.36926 147.379 9.4066 147.78 9.4066C147.956 9.4066 148.154 9.38462 148.352 9.36264C148.55 9.34066 148.747 9.31868 148.923 9.31868C149.011 9.31868 149.187 9.31868 149.187 9.4066C149.187 9.49451 149.187 9.58242 149.099 9.58242C148.572 9.75825 148.484 10.5495 148.484 11.3407V18.5495C148.484 20.3956 148.484 21.8901 149.187 22.2418C149.221 22.2753 149.254 22.2961 149.283 22.3138C149.329 22.3425 149.363 22.3633 149.363 22.4176C149.363 22.4176 149.275 22.5055 149.187 22.5055C149.131 22.5055 149.047 22.4965 148.934 22.4842C148.693 22.4582 148.318 22.4176 147.78 22.4176C147.173 22.4176 146.775 22.4596 146.53 22.4855C146.42 22.4971 146.34 22.5055 146.286 22.5055C146.11 22.5055 146.11 22.5055 146.11 22.4176C146.11 22.4176 146.198 22.3297 146.374 22.2418C147.077 21.7143 147.165 19.8681 147.165 18.5495V11.3407H147.077Z" fill="#004D7E"/>
<path d="M161.495 9.31868L162.022 11.6044V11.8681C161.934 11.8681 161.846 11.7802 161.846 11.6044C161.143 10.2857 159.473 9.75824 158.242 9.75824C157.714 9.75824 157.275 9.84616 157.275 10.5495V18.2857C157.275 20.8352 157.451 21.8022 158.066 22.0659C158.33 22.1539 158.506 22.2418 158.506 22.3297C158.506 22.4176 158.418 22.4176 158.33 22.4176C158.311 22.4176 158.275 22.4134 158.219 22.407C158.018 22.3836 157.554 22.3297 156.66 22.3297C155.694 22.3297 155.199 22.3769 154.935 22.4021C154.838 22.4113 154.772 22.4176 154.725 22.4176C154.55 22.4176 154.55 22.3297 154.55 22.3297C154.55 22.2711 154.628 22.2515 154.758 22.219C154.823 22.2027 154.901 22.1832 154.989 22.1539C155.605 21.978 155.868 20.1319 155.868 18.022V10.7253C155.868 9.93407 155.429 9.93407 154.901 9.93407C153.67 9.93407 152 10.3736 151.297 11.7802C151.209 11.8681 151.121 12.044 151.121 12.044V11.7802L151.649 9.49451L161.495 9.31868Z" fill="#004D7E"/>
<path fill-rule="evenodd" clip-rule="evenodd" d="M164.22 16L163.165 18.4615C162.813 19.2527 162.462 20.3077 162.462 21.0989C162.462 21.4505 162.638 21.8022 162.901 21.978C162.983 22.0597 163.084 22.1225 163.168 22.175C163.265 22.2356 163.341 22.2826 163.341 22.3297C163.341 22.4176 163.253 22.4176 163.077 22.4176H160.703C160.528 22.4176 160.44 22.4176 160.44 22.3297C160.44 22.2684 160.568 22.1643 160.675 22.0772C160.722 22.0393 160.765 22.0046 160.791 21.978C161.476 21.2073 162.078 19.8525 162.434 19.0516L162.462 18.989L166.769 9.14286C166.769 9.05494 166.857 9.05494 166.857 9.05494C166.945 9.05494 166.945 9.14286 166.945 9.14286L171.78 20.7472C172.044 21.2747 172.396 21.8901 172.835 22.2418C173.011 22.3297 173.099 22.4176 173.099 22.5055C173.099 22.5055 173.099 22.5934 172.923 22.5934H169.758C169.671 22.5934 169.67 22.5934 169.67 22.5055C169.67 22.4176 169.846 22.3297 170.022 22.2418C170.198 22.1538 170.286 21.978 170.286 21.5385C170.286 21.011 169.934 19.956 169.495 18.9011L168.44 16.1758L164.22 16ZM166.418 11.0769L164.484 15.4725H168.264L166.418 11.0769Z" fill="#004D7E"/>
<path d="M176.703 22.3297C176.11 22.3297 175.714 22.3791 175.517 22.4039C175.451 22.4121 175.407 22.4176 175.385 22.4176C175.277 22.4176 175.235 22.4176 175.219 22.3973C175.209 22.3845 175.209 22.3637 175.209 22.3297C175.209 22.2675 175.253 22.2493 175.341 22.2129C175.377 22.1978 175.421 22.1796 175.473 22.1539C176.44 21.8901 176.703 21.0989 176.703 18.6374V11.5165C176.703 10.1099 176.44 9.75824 175.912 9.58242C175.824 9.58242 175.736 9.49451 175.736 9.40659C175.736 9.31868 175.824 9.23077 176.088 9.23077C176.185 9.23077 176.293 9.24255 176.43 9.25748C176.668 9.28335 176.993 9.31868 177.495 9.31868C177.969 9.31868 178.286 9.28703 178.539 9.26171C178.708 9.24483 178.849 9.23077 178.989 9.23077C179.077 9.23077 179.165 9.23077 179.165 9.31868C179.165 9.37301 179.131 9.39377 179.085 9.42245C179.056 9.44017 179.023 9.46093 178.989 9.49451C178.198 9.75824 178.022 10.4615 178.022 11.2527V17.0549C178.022 21.6264 178.55 21.8022 180.484 21.8022C182.33 21.8022 185.583 21.5385 186.901 19.8681C186.989 19.6923 187.077 19.6044 187.253 19.6044C187.341 19.6044 187.341 19.6923 187.341 19.7802V20.044L186.638 22.4176H176.703V22.3297Z" fill="#004D7E"/>
<path d="M189.714 11.3407C189.714 10.7253 189.714 9.84616 189.099 9.58242C189.011 9.58242 189.011 9.49451 189.011 9.4066C189.011 9.31868 189.099 9.31868 189.275 9.31868C189.336 9.31868 189.419 9.32935 189.526 9.34325C189.728 9.36926 190.017 9.4066 190.418 9.4066C190.594 9.4066 190.791 9.38462 190.989 9.36264C191.187 9.34066 191.385 9.31868 191.561 9.31868C191.648 9.31868 191.824 9.31868 191.824 9.4066C191.824 9.49451 191.824 9.58242 191.736 9.58242C191.209 9.75825 191.121 10.5495 191.121 11.3407V18.5495C191.121 20.3956 191.121 21.8901 191.824 22.2418C191.858 22.2753 191.891 22.2961 191.92 22.3138C191.967 22.3425 192 22.3633 192 22.4176C192 22.4176 191.912 22.5055 191.824 22.5055C191.768 22.5055 191.685 22.4965 191.571 22.4842C191.331 22.4582 190.955 22.4176 190.418 22.4176C189.81 22.4176 189.413 22.4596 189.167 22.4855C189.057 22.4971 188.978 22.5055 188.923 22.5055C188.747 22.5055 188.747 22.5055 188.747 22.4176C188.747 22.4176 188.835 22.3297 189.011 22.2418C189.714 21.7143 189.802 19.8681 189.802 18.5495V11.3407H189.714Z" fill="#004D7E"/>
<path fill-rule="evenodd" clip-rule="evenodd" d="M197.715 16L196.66 18.4615C196.308 19.2527 195.956 20.3077 195.956 21.0989C195.956 21.4505 196.132 21.8022 196.396 21.978C196.478 22.0597 196.578 22.1225 196.663 22.175C196.76 22.2356 196.835 22.2826 196.835 22.3297C196.835 22.4176 196.747 22.4176 196.572 22.4176H194.198C194.022 22.4176 193.934 22.4176 193.934 22.3297C193.934 22.2684 194.062 22.1643 194.17 22.0772C194.217 22.0393 194.259 22.0046 194.286 21.978C194.971 21.2073 195.573 19.8525 195.928 19.0516L195.956 18.989L200.264 9.14286C200.264 9.05494 200.352 9.05494 200.352 9.05494C200.44 9.05494 200.44 9.14286 200.44 9.14286L205.275 20.7472C205.539 21.2747 205.89 21.8901 206.33 22.2418C206.506 22.3297 206.594 22.4176 206.594 22.5055C206.594 22.5055 206.594 22.5934 206.418 22.5934H203.253C203.165 22.5934 203.165 22.5934 203.165 22.5055C203.165 22.4176 203.341 22.3297 203.517 22.2418C203.693 22.1538 203.78 21.978 203.78 21.5385C203.78 21.011 203.429 19.956 202.989 18.9011L201.934 16.1758L197.715 16ZM199.824 11.0769L197.89 15.4725H201.671L199.824 11.0769Z" fill="#004D7E"/>
<path d="M83.8682 37.978V32.967C83.8682 32.7033 83.7803 32.5275 83.5166 32.5275H83.1649C83.077 32.5275 82.9891 32.5275 82.9891 32.4396C82.9891 32.3517 83.077 32.3517 83.1649 32.3517H86.5056C86.6814 32.3517 86.7693 32.3517 86.8572 32.2637H87.033C87.033 32.2637 87.121 32.2637 87.121 32.3517C87.121 32.4396 87.121 32.5275 87.033 32.8791V33.4066C87.033 33.4066 87.0331 33.4945 86.9451 33.4945C86.9012 33.4945 86.8792 33.4945 86.8682 33.4835C86.8572 33.4725 86.8572 33.4506 86.8572 33.4066C86.8572 33.3187 86.8572 33.2308 86.7693 33.1429C86.6814 32.967 86.5935 32.8791 86.2418 32.8791H85.0111C85.0111 32.8791 84.9232 32.8791 84.9232 32.967V35.0769C84.9232 35.1208 84.9232 35.1429 84.9342 35.1539C84.9451 35.1648 84.9671 35.1648 85.0111 35.1648H86.3298C86.5056 35.1648 86.6814 35.1648 86.7693 35.0769C86.8199 35.0264 86.8413 35.0049 86.8672 34.9958C86.8863 34.989 86.9078 34.989 86.9451 34.989C86.9451 34.989 87.033 34.989 87.033 35.0769C87.033 35.1648 87.0331 35.2528 86.9451 35.6923V36.2198C86.9451 36.3077 86.9451 36.3956 86.8572 36.3956C86.8133 36.3956 86.7913 36.3956 86.7803 36.3846C86.7693 36.3736 86.7693 36.3517 86.7693 36.3077V36.044C86.7693 35.8681 86.5935 35.7802 86.3298 35.6923H85.099C85.099 35.6923 85.0111 35.6923 85.0111 35.7802V37.4506C85.0111 37.978 85.1869 38.1539 86.066 38.1539C86.3298 38.1539 86.6814 38.1539 86.8572 38.0659C87.121 37.978 87.2089 37.8022 87.2089 37.4506C87.2089 37.4066 87.2089 37.3846 87.2199 37.3736C87.2309 37.3626 87.2528 37.3626 87.2968 37.3626C87.3847 37.3626 87.3847 37.4506 87.3847 37.5385C87.3847 37.6263 87.3627 37.8023 87.3408 37.9779C87.3188 38.1538 87.2968 38.3297 87.2968 38.4176C87.2089 38.5934 87.121 38.5934 86.8572 38.5934H83.3408C83.2528 38.5934 83.1649 38.5934 83.1649 38.5055C83.1649 38.5055 83.1649 38.4176 83.3408 38.4176H83.6045C83.7418 38.4176 83.7719 38.3102 83.8204 38.1376C83.834 38.0892 83.849 38.0357 83.8682 37.978Z" fill="#004D7E"/>
<path d="M91.4286 34.7253V32.967C91.4286 32.7033 91.3407 32.5275 91.077 32.5275H90.7253C90.6374 32.5275 90.5495 32.5275 90.5495 32.4396C90.5495 32.3516 90.6374 32.3516 90.7253 32.3516H93.0111C93.099 32.3516 93.1869 32.3516 93.1869 32.4396C93.1869 32.5275 93.099 32.5275 93.0111 32.5275H92.7473C92.5269 32.5275 92.4907 32.6503 92.4334 32.8446C92.4222 32.8827 92.4101 32.9238 92.3957 32.967V35.8681C92.3957 37.0989 92.6594 37.5385 93.099 37.8901C93.4506 38.1538 93.8902 38.2418 94.1539 38.2418C94.5056 38.2418 94.9451 38.1538 95.2968 37.8022C95.7363 37.3626 95.8243 36.5714 95.8243 35.7802V32.967C95.8243 32.7033 95.7363 32.5275 95.4726 32.5275H95.2089C95.1209 32.5275 95.033 32.5275 95.033 32.4396C95.033 32.3516 95.1209 32.3516 95.2089 32.3516H97.1429C97.2309 32.3516 97.3188 32.3516 97.3188 32.4396C97.3188 32.5275 97.2309 32.5275 97.1429 32.5275H96.8792C96.6588 32.5275 96.6226 32.6503 96.5653 32.8446C96.5541 32.8827 96.5419 32.9238 96.5275 32.967V35.6044C96.5275 36.4835 96.4396 37.4505 95.7363 38.0659C95.121 38.5934 94.5056 38.6813 93.9781 38.6813C93.5385 38.6813 92.7473 38.6813 92.1319 38.1538C91.6924 37.8022 91.3407 37.1868 91.3407 35.956V34.7253H91.4286Z" fill="#004D7E"/>
<path fill-rule="evenodd" clip-rule="evenodd" d="M101.539 37.978V32.967C101.539 32.7033 101.451 32.5275 101.187 32.5275H100.835C100.747 32.5275 100.659 32.5275 100.659 32.4396C100.659 32.3516 100.747 32.3516 100.835 32.3516H103.209C103.736 32.3516 104.352 32.4396 104.791 32.7033C105.055 32.8791 105.407 33.3187 105.407 33.8462C105.407 34.4615 105.143 34.989 104.264 35.6923C104.644 36.115 104.964 36.5174 105.252 36.88C105.562 37.2714 105.836 37.6163 106.11 37.8901C106.55 38.3297 106.901 38.4176 107.077 38.4176H107.341C107.429 38.4176 107.429 38.4176 107.429 38.5055C107.429 38.5934 107.341 38.5934 107.253 38.5934H106.462C106.022 38.5934 105.758 38.5934 105.583 38.4176C105.231 38.2418 104.879 37.8022 104.44 37.1868C104.285 36.9941 104.131 36.7845 103.992 36.595C103.813 36.3523 103.659 36.1427 103.561 36.044C103.561 35.956 103.473 35.9561 103.385 35.9561H102.681C102.681 35.9561 102.594 35.956 102.594 36.044V37.978C102.594 38.2418 102.681 38.4176 102.945 38.4176H103.385C103.429 38.4176 103.451 38.4176 103.462 38.4286C103.473 38.4396 103.473 38.4615 103.473 38.5055C103.473 38.5934 103.385 38.5934 103.297 38.5934H101.011C100.923 38.5934 100.835 38.5934 100.835 38.5055C100.835 38.5055 100.835 38.4176 101.011 38.4176H101.275C101.412 38.4176 101.442 38.3104 101.491 38.1379C101.504 38.0895 101.519 38.0359 101.539 37.978ZM102.594 35.4286C102.594 35.4659 102.594 35.4874 102.6 35.5065C102.609 35.5324 102.631 35.5539 102.681 35.6044C102.857 35.6923 103.121 35.6923 103.297 35.6923C103.648 35.6923 103.736 35.6923 103.912 35.5165C104.176 35.3407 104.44 34.989 104.44 34.2857C104.44 33.1429 103.648 32.7912 103.121 32.7912H102.681C102.594 32.7912 102.594 32.8791 102.594 32.8791V35.4286Z" fill="#004D7E"/>
<path fill-rule="evenodd" clip-rule="evenodd" d="M109.539 35.5165C109.539 34.1099 110.506 32.2637 113.055 32.2637C115.165 32.2637 116.484 33.4945 116.484 35.3407C116.484 37.1868 115.165 38.6813 112.967 38.6813C110.506 38.6813 109.539 36.9231 109.539 35.5165ZM115.253 35.6044C115.253 33.7582 114.198 32.6154 112.791 32.6154C111.824 32.6154 110.681 33.1429 110.681 35.1648C110.681 36.8352 111.648 38.2418 113.319 38.2418C113.934 38.2418 115.253 37.978 115.253 35.6044Z" fill="#004D7E"/>
<path d="M120.283 38.4022C120.264 38.3697 120.264 38.3258 120.264 38.2417V37.1868C120.264 37.0989 120.264 37.011 120.352 37.011C120.44 37.011 120.44 37.0989 120.44 37.1868C120.44 37.2747 120.44 37.4505 120.528 37.6264C120.703 38.2417 121.231 38.4176 121.758 38.4176C122.55 38.4176 122.901 37.8901 122.901 37.4505C122.901 37.011 122.813 36.6593 122.11 36.1319L121.758 35.8681C120.791 35.1648 120.528 34.5494 120.528 33.9341C120.528 33.0549 121.319 32.3516 122.462 32.3516C122.989 32.3516 123.341 32.4396 123.605 32.5275C123.648 32.5275 123.67 32.5275 123.681 32.5385C123.692 32.5494 123.692 32.5714 123.692 32.6154V33.5824C123.692 33.7582 123.692 33.8461 123.605 33.8461C123.517 33.8461 123.517 33.7582 123.517 33.6703C123.517 33.5824 123.517 33.3187 123.253 33.1429C123.165 32.967 122.901 32.7033 122.286 32.7033C121.67 32.7033 121.319 33.0549 121.319 33.5824C121.319 33.9341 121.495 34.2857 122.198 34.7253L122.462 34.9011C123.517 35.6044 123.868 36.2198 123.868 37.011C123.868 37.4505 123.692 38.0659 123.077 38.4176C122.637 38.6813 122.198 38.7692 121.758 38.7692C121.611 38.7481 121.478 38.7321 121.357 38.7175L121.355 38.7172C120.973 38.671 120.706 38.6388 120.44 38.5055C120.348 38.4596 120.304 38.4377 120.283 38.4022Z" fill="#004D7E"/>
<path d="M128.352 32.967C128.352 32.7033 128.264 32.5275 128.088 32.5275H127.824C127.736 32.5275 127.648 32.5275 127.648 32.4396C127.648 32.3516 127.736 32.3516 127.824 32.3516H130.022C130.11 32.3516 130.198 32.3516 130.198 32.4396C130.198 32.5275 130.11 32.5275 130.022 32.5275H129.758C129.538 32.5275 129.502 32.6503 129.444 32.8446C129.433 32.8828 129.421 32.9237 129.407 32.967V37.978C129.407 38.2418 129.495 38.3297 129.758 38.4176H130.198C130.286 38.4176 130.374 38.4176 130.374 38.5055C130.374 38.5934 130.286 38.5934 130.198 38.5934H127.824C127.736 38.5934 127.648 38.5934 127.648 38.5055C127.648 38.5055 127.648 38.4176 127.824 38.4176H128.088C128.264 38.4176 128.352 38.2418 128.352 37.978V32.967Z" fill="#004D7E"/>
<path d="M134.33 38.5055C134.238 38.4596 134.194 38.4377 134.173 38.4022C134.154 38.3697 134.154 38.3258 134.154 38.2417V37.1868C134.154 37.0989 134.154 37.011 134.242 37.011C134.33 37.011 134.33 37.0989 134.33 37.1868C134.33 37.2747 134.33 37.4505 134.418 37.6264C134.594 38.2417 135.121 38.4176 135.648 38.4176C136.44 38.4176 136.791 37.8901 136.791 37.4505C136.791 37.011 136.703 36.6593 136 36.1319L135.648 35.8681C134.681 35.1648 134.418 34.5494 134.418 33.9341C134.418 33.0549 135.209 32.3516 136.352 32.3516C136.879 32.3516 137.231 32.4396 137.495 32.5275C137.539 32.5275 137.561 32.5275 137.572 32.5385C137.583 32.5494 137.583 32.5714 137.583 32.6154V33.5824C137.583 33.7582 137.583 33.8461 137.495 33.8461C137.407 33.8461 137.407 33.7582 137.407 33.6703C137.407 33.5824 137.407 33.3187 137.143 33.1429C137.055 32.967 136.791 32.7033 136.176 32.7033C135.561 32.7033 135.209 33.0549 135.209 33.5824C135.209 33.9341 135.385 34.2857 136.088 34.7253L136.352 34.9011C137.407 35.6044 137.758 36.2198 137.758 37.011C137.758 37.4505 137.583 38.0659 136.967 38.4176C136.528 38.6813 136.088 38.7692 135.648 38.7692C135.501 38.7481 135.368 38.732 135.247 38.7174L135.245 38.7172C134.863 38.671 134.596 38.6388 134.33 38.5055Z" fill="#004D7E"/>
<path d="M142.154 32.8791C141.627 32.8791 141.451 32.967 141.363 33.1429C141.324 33.1814 141.303 33.2368 141.283 33.287C141.258 33.3512 141.236 33.4066 141.187 33.4066C141.187 33.4506 141.187 33.4725 141.176 33.4835C141.165 33.4945 141.143 33.4945 141.099 33.4945C141.011 33.4945 141.011 33.4945 141.011 33.4066C141.011 33.3627 141.055 33.1436 141.099 32.9242L141.099 32.9231C141.143 32.7033 141.187 32.4835 141.187 32.4396C141.187 32.3517 141.275 32.2637 141.275 32.2637C141.311 32.2637 141.348 32.2788 141.39 32.2965C141.451 32.3215 141.524 32.3517 141.627 32.3517H146.725C146.813 32.3517 146.813 32.4396 146.813 32.5275V33.4945C146.813 33.5385 146.813 33.5604 146.802 33.5714C146.791 33.5824 146.769 33.5824 146.725 33.5824C146.638 33.5824 146.637 33.5824 146.637 33.4066V33.3187C146.637 33.1429 146.374 32.8791 145.67 32.8791H144.616V37.978C144.616 38.2418 144.703 38.4176 144.967 38.4176H145.407C145.495 38.4176 145.583 38.4176 145.583 38.5055C145.583 38.5934 145.495 38.5934 145.407 38.5934H143.033C142.945 38.5934 142.857 38.5934 142.857 38.5055C142.857 38.5055 142.857 38.4176 143.033 38.4176H143.297C143.473 38.4176 143.561 38.2418 143.561 37.978V32.8791H142.154Z" fill="#004D7E"/>
<path d="M150.857 37.978V32.967C150.857 32.7033 150.769 32.5275 150.506 32.5275H150.154C150.066 32.5275 149.978 32.5275 149.978 32.4396C149.978 32.3517 150.066 32.3517 150.154 32.3517H153.495C153.67 32.3517 153.758 32.3517 153.846 32.2637H154.022C154.022 32.2637 154.11 32.2637 154.11 32.3517C154.11 32.4396 154.11 32.5275 154.022 32.8791V33.4066C154.022 33.4066 154.022 33.4945 153.934 33.4945C153.89 33.4945 153.868 33.4945 153.857 33.4835C153.846 33.4725 153.846 33.4506 153.846 33.4066C153.846 33.3187 153.846 33.2308 153.758 33.1429C153.67 32.967 153.583 32.8791 153.231 32.8791H152C152 32.8791 151.912 32.8791 151.912 32.967V35.0769C151.912 35.1209 151.912 35.1429 151.923 35.1539C151.934 35.1648 151.956 35.1648 152 35.1648H153.319C153.495 35.1648 153.67 35.1648 153.758 35.0769C153.809 35.0264 153.83 35.0049 153.856 34.9958C153.875 34.989 153.897 34.989 153.934 34.989C153.934 34.989 154.022 34.989 154.022 35.0769C154.022 35.1648 154.022 35.2528 153.934 35.6923V36.2198C153.934 36.3077 153.934 36.3956 153.846 36.3956C153.802 36.3956 153.78 36.3956 153.769 36.3846C153.758 36.3736 153.758 36.3517 153.758 36.3077V36.044C153.758 35.8681 153.583 35.7802 153.319 35.6923H152.088C152.088 35.6923 152 35.6923 152 35.7802V37.4506C152 37.978 152.176 38.1539 153.055 38.1539C153.319 38.1539 153.67 38.1539 153.846 38.0659C154.11 37.978 154.198 37.8022 154.198 37.4506C154.198 37.4066 154.198 37.3846 154.209 37.3736C154.22 37.3626 154.242 37.3626 154.286 37.3626C154.374 37.3626 154.374 37.4506 154.374 37.5385C154.374 37.6263 154.352 37.8027 154.33 37.9784C154.308 38.154 154.286 38.3298 154.286 38.4176C154.198 38.5934 154.11 38.5934 153.846 38.5934H150.33C150.242 38.5934 150.154 38.5934 150.154 38.5055C150.154 38.5055 150.154 38.4176 150.33 38.4176H150.594C150.731 38.4176 150.761 38.3104 150.809 38.1378L150.818 38.1078L150.827 38.0774C150.836 38.0459 150.846 38.0128 150.857 37.978Z" fill="#004D7E"/>
<path d="M159.033 32.4396C159.033 32.2637 159.121 32.2637 159.209 32.2637C159.297 32.2637 159.297 32.2637 159.473 32.5275L161.758 37.1868L164.044 32.5275C164.078 32.4939 164.098 32.4603 164.116 32.4316C164.145 32.3852 164.166 32.3517 164.22 32.3517C164.282 32.3517 164.3 32.3956 164.337 32.4835C164.343 32.4995 164.351 32.517 164.359 32.5359C164.369 32.5601 164.381 32.5866 164.396 32.6154L165.187 37.7143C165.275 38.2417 165.363 38.5055 165.627 38.5055C165.89 38.5934 166.066 38.5934 166.154 38.5934C166.242 38.5934 166.33 38.5934 166.33 38.6813C166.33 38.7692 166.242 38.7692 166.066 38.7692C165.89 38.7692 164.66 38.7692 164.308 38.6813C164.132 38.6813 164.044 38.6813 164.044 38.5934C164.044 38.5934 164.044 38.5055 164.132 38.5055C164.22 38.5055 164.22 38.4176 164.132 38.1538L163.605 34.5494L161.758 38.2417C161.583 38.5934 161.495 38.6813 161.407 38.6813C161.319 38.6813 161.231 38.5055 161.143 38.2417C161.04 38.0366 160.758 37.5024 160.524 37.058L160.522 37.0546L160.521 37.0528C160.355 36.7376 160.212 36.4685 160.176 36.3956C160.087 36.2183 159.56 35.1643 159.297 34.5494L158.857 37.8022V38.1538C158.857 38.3297 158.945 38.4176 159.121 38.4176H159.473C159.517 38.4176 159.539 38.4176 159.55 38.4286C159.561 38.4395 159.561 38.4615 159.561 38.5055C159.561 38.5934 159.473 38.5934 159.385 38.5934H157.627C157.539 38.5934 157.451 38.5934 157.451 38.5055C157.451 38.5055 157.539 38.4176 157.627 38.4176H157.89C158.096 38.3491 158.141 38.174 158.193 37.9753C158.207 37.9189 158.222 37.8605 158.242 37.8022L159.033 32.4396Z" fill="#004D7E"/>
<path fill-rule="evenodd" clip-rule="evenodd" d="M170.55 36.3956L170.022 37.6264C169.934 37.8022 169.934 38.0659 169.934 38.1539C169.934 38.3297 170.022 38.4176 170.286 38.4176H170.374C170.462 38.4176 170.462 38.4176 170.462 38.5055C170.462 38.5934 170.374 38.5934 170.286 38.5934H168.44C168.352 38.5934 168.264 38.5934 168.264 38.5055C168.264 38.4176 168.264 38.4176 168.352 38.4176H168.616C168.967 38.3297 169.143 38.0659 169.319 37.7143L171.429 32.5275C171.517 32.2637 171.605 32.1758 171.692 32.1758C171.755 32.1758 171.773 32.2198 171.809 32.3077C171.821 32.3351 171.834 32.3668 171.851 32.4027C171.856 32.4145 171.862 32.4268 171.868 32.4396C172.044 32.8791 173.451 36.2198 173.978 37.4506C174.33 38.1539 174.506 38.3297 174.681 38.3297H175.033C175.077 38.3297 175.099 38.3297 175.11 38.3407C175.121 38.3517 175.121 38.3736 175.121 38.4176C175.121 38.5055 175.033 38.5055 174.769 38.5055H173.187C173.011 38.5055 172.923 38.5053 172.923 38.4174C172.923 38.3736 172.923 38.3516 172.934 38.3407C172.945 38.3297 172.967 38.3297 173.011 38.3297C173.099 38.3297 173.099 38.2418 173.099 38.1539L172.396 36.3956C172.396 36.3956 172.396 36.3077 172.308 36.3077H170.55V36.3956ZM171.605 33.9341V33.8462L171.517 33.9341L170.725 35.9561V36.044H172.308L171.605 33.9341Z" fill="#004D7E"/>
</svg>
