<?xml version="1.0" encoding="utf-8"?>
<!-- Generator: Adobe Illustrator 27.4.1, SVG Export Plug-In . SVG Version: 6.00 Build 0)  -->
<svg version="1.1" xmlns="http://www.w3.org/2000/svg" xmlns:xlink="http://www.w3.org/1999/xlink" x="0px" y="0px"
	 viewBox="0 0 1713.8 810.8" style="enable-background:new 0 0 1713.8 810.8;" xml:space="preserve">
<style type="text/css">
	.st0{fill:#000032;}
	.st1{fill:#FFFFFF;}
</style>
<g id="BG">
</g>
<g id="Layer_1">
	<g>
		<polygon points="270.4,405.4 270.4,535.3 304.2,535.3 304.2,405.4 304.2,275.4 270.4,275.4 		"/>
		<path d="M764.7,385c-46.2-9-66.8-23-66.8-45.2c0-26.4,27.6-35.8,51.3-35.8c31.6,0,53.9,16.1,64.4,46.6l30.9-16.1
			c-13.4-40.1-48.8-64-94.9-64c-50.8,0-87.6,29.3-87.6,69.7c0,40.4,28.2,65.1,86.1,75.7c44.4,8.2,64.2,22.8,64.2,47.4
			c0,21.7-20.1,43.7-58.4,43.7c-39,0-62.8-20.2-70.7-60l-32.9,12.4c10.4,49.9,50.1,81,103.7,81c55.5,0,95.8-33.5,95.8-79.7
			C849.6,421.3,821,395.8,764.7,385z"/>
		<path d="M1308.4,270.4c-74.4,0-135,60.5-135,135s60.5,135,135,135s135-60.5,135-135S1382.9,270.4,1308.4,270.4z M1308.4,506.5
			c-55.8,0-101.1-45.4-101.1-101.1s45.4-101.1,101.1-101.1s101.1,45.4,101.1,101.1S1364.2,506.5,1308.4,506.5z"/>
		<path d="M482.3,270.4c-74.4,0-135,60.5-135,135s60.5,135,135,135s135-60.5,135-135S556.7,270.4,482.3,270.4z M482.3,506.5
			c-55.8,0-101.1-45.4-101.1-101.1s45.4-101.1,101.1-101.1c55.8,0,101.1,45.4,101.1,101.1S538,506.5,482.3,506.5z"/>
		<path d="M1019.1,506.5c-55.8,0-101.1-45.4-101.1-101.1s45.4-101.1,101.1-101.1c34.9,0,65.1,16.5,83.8,46.2l30.9-16.1
			c-24.9-39.6-68-64-114.6-64c-74.4,0-135,60.5-135,135s60.5,135,135,135c53.3,0,101.7-32.1,123.4-81l-32.9-12.4
			C1093.4,483.8,1059.3,506.5,1019.1,506.5z"/>
		<path d="M246.1,178.8c-12.3,0-22.3,10-22.3,22.3c0,12.3,10,22.3,22.3,22.3c12.3,0,22.3-10,22.3-22.3
			C268.4,188.7,258.4,178.8,246.1,178.8z"/>
		
			<ellipse transform="matrix(9.853791e-02 -0.9951 0.9951 9.853791e-02 96.1173 508.2226)" cx="328.6" cy="201.1" rx="22.3" ry="22.3"/>
		<path d="M287.3,149.1c12.3,0,22.3-10,22.3-22.3c0-12.3-10-22.3-22.3-22.3c-12.3,0-22.3,10-22.3,22.3
			C265,139.1,275,149.1,287.3,149.1z"/>
	</g>
</g>
</svg>
