<?xml version="1.0" encoding="UTF-8"?>
<svg xmlns="http://www.w3.org/2000/svg" version="1.1" xmlns:xlink="http://www.w3.org/1999/xlink" viewBox="0 0 341 47">
  <!-- Generator: Adobe Illustrator 29.5.1, SVG Export Plug-In . SVG Version: 2.1.0 Build 141)  -->
  <defs>
    <style>
      .st0 {
        fill: #38a1db;
      }

      .st1 {
        fill: #fff;
      }

      .st2 {
        fill: none;
      }

      .st3 {
        fill: #004098;
      }

      .st4 {
        clip-path: url(#clippath);
      }
    </style>
    <clipPath id="clippath">
      <path class="st2" d="M1.1832656,44.9253426s20.8153336,2.2570237,28.7582519-6.4297693c3.8039399-4.160174,3.6542837-9.3262538,2.5191365-16.1617945-.9655735-5.8146299-1.7351226-10.1656061,3.0400728-14.5954716,4.7803393-4.4316435,7.1255322-5.8231375,7.1255322-5.8231375,0,0-11.5082973,1.2304297-17.4616371,9.3841444-3.9984525,5.473553-3.6518456,13.6159008-3.9493011,15.9978688-.2974963,2.3819702-1.083249,9.7056539-9.9542712,14.0637071,0,0-6.8633448,3.5644528-10.077784,3.5644528Z"/>
    </clipPath>
  </defs>
  <g id="_レイヤー_1" data-name="レイヤー_1">
    <rect class="st2" width="341" height="47"/>
    <g>
      <g>
        <path d="M68.7742462,28.7645206c0,2.4515915,0,2.7944202.2941589,3.3096828.2697754.4899673.8580933.5153236,1.8632736.6126595.1719208.0253525.2206497.0740776.2206497.2941589,0,.2698288-.0487289.2941628-.2449875.2941628-1.1522522-.0486679-2.5007706-.0730591-3.6779251-.0730591-1.1274109,0-2.304512.0243912-3.407589.0730591-.1719246,0-.2206497-.024334-.2206497-.2688065,0-.2698288.0487251-.2941628.1958046-.3195152.9808426-.0973358,1.4469299-.0973358,1.7161865-.6126595.2941666-.5639305.2941666-1.6421642.2941666-3.3096828v-8.9006844c0-2.3532352,0-2.67173-.2941666-3.2113285-.2449265-.4655762-.8580933-.4909306-1.863266-.5883236-.1714134-.024334-.2206497-.0496883-.2206497-.3184948,0-.2941618.0492363-.3438501.2206497-.3438501,2.1574326.0496883,4.5851974.0984135,6.5707626.0984135,2.0108566,0,4.2418594-.024334,6.3993454-.0984135.0979004,1.2506685.2698288,2.8685007.4412384,4.1931906.0248489.1470814,0,.2201385-.2449799.2688065-.2698288.0253563-.343338-.024334-.3925171-.1714134-.4169083-1.0051746-1.0295639-2.1574879-1.6670685-2.6230068-.7353439-.5396557-1.7897568-.7850914-3.8001633-.7850914-.8580933,0-1.6426773.0496883-1.9373474.6136208-.2692566.5142994-.2449265,1.6422215-.2449265,2.9658909v3.6535931c.3925171.024334.9559937.024334,1.3728485.024334,1.5691605,0,2.7214203-.1957493,3.1875076-.5395985.53965-.4158878.735405-1.0052319.9073257-1.6178322.0486679-.1958046.0735168-.2698269.343338-.2698269.2941666,0,.3184967.0740223.3184967.2941608-.0243301.8580952-.0491791,1.6918545-.0491791,2.550005,0,.9077835.0248489,1.9616814.0491791,2.8441105,0,.1958046-.0491791.2698269-.2941589.2698269-.2697754,0-.3190079-.0983562-.3676758-.2698269-.1719208-.6126003-.3925171-1.3976936-.9316635-1.8146019-.4904175-.2941608-1.6183395-.5883236-3.1631699-.5883236-.4168549,0-.9803314,0-1.3728485.0243912v4.3402729Z"/>
        <path d="M79.8282776,26.1161022c0-.9311523-.0248489-1.6178322-.1226959-2.0834084-.1227417-.3925171-.3677292-.5395985-.9073257-.4909306l-.6375046.0496883c-.2449799.024334-.2941589.024334-.3184891-.2697697-.0243378-.2941628,0-.3195171.2698212-.3682423.9560013-.2200813,2.8192673-.7353458,3.9715805-1.1279202.1719284,0,.2941055.0984116.2941055.2454929-.0735092,1.7892456-.097847,3.1626625-.097847,4.3392506v3.2123508c0,1.4707508,0,2.2304878.1719284,2.6230068.1957474.3682404.6126556.3682404,1.3972397.4169083.1470184.024334.1719208.0984116.1719208.3184929,0,.2454948-.0249023.2941628-.1719208.2941628-.8824844-.024334-1.8876648-.0730591-2.7214203-.0730591-.8089752,0-1.9368973.0487251-2.7706528.0730591-.1962662,0-.2449341-.0486679-.2449341-.2941628,0-.2200813.0486679-.3184929.2205963-.3184929.7110138-.0486679,1.1030807-.0730019,1.2993393-.4169083.2449799-.416853.1962585-1.2009239.1962585-2.6230068v-3.5065117ZM82.5253601,16.6281738c0,.8580933-.8337631,1.6665001-1.6183395,1.6665001-.8580933,0-1.6918564-.8084068-1.6918564-1.6665001,0-.8581505.8337631-1.6431866,1.6918564-1.6431866.7845764,0,1.6183395.7850361,1.6183395,1.6431866Z"/>
        <path d="M84.9754791,23.4930954c-.2449875.024334-.3184967,0-.343338-.2698269-.0243912-.2698288.0248413-.3184967.2941589-.368185,1.0051727-.1957474,2.7705994-.6857147,3.8741837-1.0782318.1470795,0,.2941589.0984116.2941589.1957474-.0492325.6867371-.0492325,1.4464169-.0492325,2.0844288.8581543-1.4707508,2.2310028-2.3288441,3.8001633-2.3288441.7359161,0,3.5795135.3914967,3.5795135,3.5054913,0,.9067612-.0243378,2.1330948-.0243378,2.7214184v1.6918545c0,1.4707508.0243378,2.2315083.1958084,2.5986729.1724319.3682404.5639343.3925743,1.2749481.4665947.1470795.024334.1968231.0730591.1968231.2941628,0,.2201385-.0243912.2688065-.1968231.2688065-.9067612-.024334-1.8379135-.0730591-2.6721878-.0730591-.8581467,0-1.863327.0487251-2.7949829.0730591-.1714172,0-.1962585-.0486679-.1962585-.2688065,0-.2454376.0491714-.2941628.1962585-.2941628.6618347-.0496864,1.0544052-.0740204,1.2506638-.4665947.1957474-.392519.1957474-1.17659.1957474-2.5986729v-3.3340759c0-.7110138.0492401-1.3490257-.2941589-2.1087627-.3184967-.7353477-.833252-1.2262783-1.7897568-1.2262783-.882431,0-1.7405777.6136208-2.206665,1.3976917-.441185.735405-.5147552,1.1766472-.5147552,1.9616833v3.309742c0,1.4707508-.0243301,2.2315083.1470795,2.5986729.1962585.3925743.5883255.3925743,1.3485718.4665947.1714172.024334.2205963.0487251.2205963.2941628,0,.2444725-.0491791.2688065-.2205963.2688065-.8581467-.024334-1.8141479-.0730591-2.6235733-.0730591-.8824234,0-1.8876572.0487251-2.8192673.0730591-.1470795,0-.1719208-.0486679-.1719208-.2688065,0-.2454376.0491791-.2698288.1719208-.2941628.7110138-.0740204,1.1030273-.0740204,1.2993393-.4665947.1962585-.392519.1714172-1.17659.1714172-2.5986729v-3.6282387c0-.9077816,0-1.6188526-.1714172-2.0600376-.1470795-.4169083-.343338-.5396557-.7602463-.5142994l-.6618347.0487232Z"/>
        <path d="M107.9944382,30.5050983c-.0243378,1.5691051.3195114,2.1574306.8835068,2.1574306.2940979,0,.441185-.024334.7110062-.1714134.0973969-.0486679.2200851-.0486679.3184967.1227455s.0984116.2454376-.0740204.3671608c-.4169083.319519-1.1279221.5639915-2.0834045.5639915-1.054924,0-1.7659378-.5143013-2.0844345-1.3237267-.8824844.8824844-1.7405777,1.4464149-3.4324875,1.4464149-2.4029236,0-3.1383286-1.4950829-3.1383286-2.598671,0-1.0792542.3184967-1.6178322.8338165-2.1818199.7353516-.6623459,1.617836-.8824291,3.1382751-1.3490257,1.0782318-.3184948,1.5448303-.5883236,1.9119873-.8824844.319519-.2454376.5639954-.6126003.5639954-.9564495v-.6857166c0-1.8389339-.4655762-2.5996933-1.4707489-2.5996933-.3925781,0-.8581543.0740223-1.2750092.4909306-.3428802.2941628-.4412384.7597389-.4412384,1.3723946,0,.6623459-.6126556,1.1776104-1.8876572,1.1776104-.7607651,0-.9565125-.2941608-.9565125-.7850914,0-1.152256,1.8876648-2.9415016,4.903244-2.9415016,3.604866,0,3.6535873,1.7405777,3.6291962,3.6525707l-.0496826,5.1243439ZM105.5428467,27.048275c-.2444763.3671627-.5883255.5639324-1.9616852,1.0782337-1.2993927.5152645-1.789299,1.3246899-1.789299,2.574337,0,1.3003597.8824844,2.0113697,1.5448303,2.0113697,1.2750015,0,2.1818161-.9808388,2.1818161-2.1330948l.0243378-3.5308456Z"/>
        <path d="M110.5170441,23.4930954c-.2454376.024334-.3184967,0-.3428268-.2698269-.0253601-.2698288.0243301-.3184967.2941589-.368185,1.0051727-.1957474,2.7700882-.6857147,3.8736725-1.0782318.1470871,0,.2941666.0984116.2941666.1957474-.0486679.6867371-.0486679,1.4464169-.0486679,2.0844288.8580933-1.4707508,2.230484-2.3288441,3.7996521-2.3288441.7353439,0,3.5795135.3914967,3.5795135,3.5054913,0,.9067612-.0243378,2.1330948-.0243378,2.7214184v1.6918545c0,1.4707508.0243378,2.2315083.195755,2.5986729.1724319.3682404.5639801.3925743,1.2749939.4665947.1470871.024334.1967697.0730591.1967697.2941628,0,.2201385-.0243301.2688065-.1967697.2688065-.9068146-.024334-1.8379669-.0730591-2.67173-.0730591-.8580933,0-1.863266.0487251-2.7954407.0730591-.1714172,0-.1958008-.0486679-.1958008-.2688065,0-.2454376.0487213-.2941628.1958008-.2941628.6623459-.0496864,1.0538406-.0740204,1.2506714-.4665947.1957474-.392519.1957474-1.17659.1957474-2.5986729v-3.3340759c0-.7110138.0496902-1.3490257-.2941589-2.1087627-.3184967-.7353477-.8337631-1.2262783-1.7892456-1.2262783-.8835068,0-1.7416.6136208-2.2071762,1.3976917-.441246.735405-.5142441,1.1766472-.5142441,1.9616833v3.309742c0,1.4707508-.0253601,2.2315083.1470795,2.5986729.1957474.3925743.5882645.3925743,1.3479996.4665947.1714172.024334.2211075.0487251.2211075.2941628,0,.2444725-.0496902.2688065-.2211075.2688065-.8580933-.024334-1.8145981-.0730591-2.6230011-.0730591-.8835068,0-1.8886795.0487251-2.8198318.0730591-.1470871,0-.1714172-.0486679-.1714172-.2688065,0-.2454376.0486679-.2698288.1714172-.2941628.7110138-.0740204,1.1035843-.0740204,1.2993317-.4665947.1957474-.392519.1714172-1.17659.1714172-2.5986729v-3.6282387c0-.9077816,0-1.6188526-.1714172-2.0600376-.1470795-.4169083-.3428268-.5396557-.7597351-.5142994l-.6623459.0487232Z"/>
        <path d="M133.2418976,22.2910957c.4909363.1967678.980835.5639877.980835,1.1532764,0,.8824844-.2698212,1.6178875-1.0782166,1.6178875-.7353516,0-1.1776123-.9321728-1.4717865-1.5204964-.2941589-.5395985-.6613159-1.0295086-1.2993317-1.0295086-1.8876648,0-2.844162,2.1330967-2.844162,5.1486778,0,3.1869946,1.7902679,4.8058491,3.4080963,4.8058491,1.4464111,0,2.2315063-.5152664,3.1139984-1.7162457.1227417-.1967697.2454376-.1714153.4412384-.024334.1967621.1217251.2210999.2200813.1470795.3671627-1.0052338,1.7162437-2.4516449,2.574337-4.4376678,2.574337-3.3097382,0-5.5655823-2.4515896-5.5655823-5.8840237,0-3.3838215,2.4515915-6.0554943,5.6142578-6.0554943,1.4474335,0,2.3299255.2687492,2.9912415.562912Z"/>
        <path d="M137.039505,26.1161022c0-.9311523-.0243225-1.6178322-.1217194-2.0834084-.122757-.3925171-.3681793-.5395985-.9078369-.4909306l-.6369934.0496883c-.2454376.024334-.2941132.024334-.319519-.2697697-.0243378-.2941628,0-.3195171.2698212-.3682423.9565125-.2200813,2.8198395-.7353458,3.9720917-1.1279202.1714172,0,.2941589.0984116.2941589.2454929-.0730591,1.7892456-.0973816,3.1626625-.0973816,4.3392506v3.2123508c0,1.4707508,0,2.2304878.171402,2.6230068.195816.3682404.6126709.3682404,1.3977509.4169083.1470795.024334.1714172.0984116.1714172.3184929,0,.2454948-.0243378.2941628-.1714172.2941628-.8834381-.024334-1.8886719-.0730591-2.7224274-.0730591-.8084106,0-1.9363403.0487251-2.7700958.0730591-.1958008,0-.2454987-.0486679-.2454987-.2941628,0-.2200813.0496979-.3184929.2211151-.3184929.7110596-.0486679,1.1035767-.0730019,1.2993927-.4169083.2454376-.416853.1957397-1.2009239.1957397-2.6230068v-3.5065117ZM139.7365875,16.6281738c0,.8580933-.8337555,1.6665001-1.6178284,1.6665001-.8581543,0-1.6919098-.8084068-1.6919098-1.6665001,0-.8581505.8337555-1.6431866,1.6919098-1.6431866.7840729,0,1.6178284.7850361,1.6178284,1.6431866Z"/>
        <path d="M151.233902,30.5050983c-.0243225,1.5691051.319519,2.1574306.8834534,2.1574306.2941589,0,.4412384-.024334.7110748-.1714134.0973358-.0486679.2200775-.0486679.3184967.1227455.0983582.1714134.0983582.2454376-.0740814.3671608-.4168549.319519-1.1279297.5639915-2.0834045.5639915-1.0548706,0-1.7659454-.5143013-2.0844421-1.3237267-.8824158.8824844-1.7405701,1.4464149-3.4324188,1.4464149-2.4029236,0-3.1383362-1.4950829-3.1383362-2.598671,0-1.0792542.3184967-1.6178322.8337555-2.1818199.7354126-.6623459,1.6178894-.8824291,3.1383362-1.3490257,1.0782318-.3184948,1.5448303-.5883236,1.9119873-.8824844.319519-.2454376.5639954-.6126003.5639954-.9564495v-.6857166c0-1.8389339-.4655762-2.5996933-1.4708099-2.5996933-.3925171,0-.8580933.0740223-1.2750092.4909306-.3428192.2941628-.4411774.7597389-.4411774,1.3723946,0,.6623459-.6126556,1.1776104-1.8876648,1.1776104-.7607574,0-.9564972-.2941608-.9564972-.7850914,0-1.152256,1.8876495-2.9415016,4.903183-2.9415016,3.6049194,0,3.6535797,1.7405777,3.6292572,3.6525707l-.0496979,5.1243439ZM148.7823181,27.048275c-.2444763.3671627-.5883331.5639324-1.9607239,1.0782337-1.300354.5152645-1.7902679,1.3246899-1.7902679,2.574337,0,1.3003597.8824921,2.0113697,1.5448303,2.0113697,1.2750092,0,2.1817627-.9808388,2.1817627-2.1330948l.0243988-3.5308456Z"/>
        <path d="M155.0315247,18.5645008c0-.8824844-.0740356-1.5934982-.1714172-2.0104065-.0984192-.441185-.4169159-.5882664-.809433-.5639324l-.6623383.0496883c-.2201385.024334-.2688141,0-.2941742-.2698269-.0243225-.2941046.0253601-.3184958.2454376-.3681841,1.0052338-.1957483,2.8441772-.6866798,4.0451508-1.0782328.1724396,0,.2951355.0487242.2951355.1714144-.0496979,1.8389921-.1226959,3.6282377-.1226959,6.0311613v9.0720978c0,1.4950848-.0253601,2.2548218.1714172,2.6230068.1957397.3925743.5883179.4169083,1.3723297.4909286.1481018.024334.1724396.0730591.1724396.2941628,0,.2444725-.0496826.2688065-.1967773.2688065-.9067535-.0486679-1.863266-.0730591-2.6717224-.0730591-.8580933,0-1.8886261.0243912-2.7954407.0730591-.2210999,0-.2698364-.0486679-.2698364-.2688065,0-.2211037.0487366-.2698288.2454987-.2941628.7597351-.0740204,1.053894-.0983543,1.2506714-.4909286.195755-.416853.195755-1.17659.195755-2.6230068v-11.0337791Z"/>
        <path d="M172.3865356,24.6210175c-2.9181824-1.4717712-3.8980103-2.6970863-3.8980103-5.1984234,0-2.5002594,2.2061005-4.4132729,5.4915009-4.4132729,1.0792542,0,1.7902679.1724358,2.4759369.3438501.7607574.1957483,1.6189117.1957483,2.4273071.0730019,0,1.2506685.1724396,2.8441668.2697754,4.1435022,0,.1227474,0,.1967697-.2444153.2454929-.2698364.0486679-.319519-.024332-.3682404-.1470795-.9564514-2.2558441-2.4759216-3.8736753-4.4376068-3.8736753-1.6675873,0-2.9425812,1.200923-2.9425812,3.0896044,0,1.1025658.6623383,2.1330948,2.7214203,3.1382694l1.3247375.6370487c3.4811096,1.6918545,4.7074432,2.7954407,4.7074432,5.7126083,0,3.3097439-2.4272614,5.2957573-6.5464172,5.2957573-1.7162476,0-3.3351135-.3671608-4.7074432-.8580933-.3682404-1.3480034-.6867371-2.8928337-.8581543-4.0948334-.0243378-.1714153-.0243378-.3428307.2698364-.3914967.2698212-.0496902.367157.024332.4169006.1470795,1.1025696,2.4759254,3.0155334,4.4132748,5.1486816,4.4132748,2.0834045,0,3.5551758-1.4717731,3.5551758-3.5308475,0-1.8632679-1.1035919-2.8197746-3.5805359-4.0947781l-1.2253113-.6369896Z"/>
        <path d="M184.6912384,27.6609325c0,3.2366829,1.9860687,4.854517,3.5065002,4.854517,1.5935059,0,2.5003204-.5396004,3.4081116-1.7649136.0730438-.0984135.171463-.1227474.2444763-.1227474.0740662,0,.1480865.0487251.2210846.0984135.0984192.0730019.195816.1714134.195816.2444725,0,.0496883-.0487213.1470242-.1217346.2697716-1.1279144,1.7405758-2.5013275,2.4272556-4.5360718,2.4272556-3.3837585,0-5.6639404-2.5002575-5.6639404-5.8840237,0-3.309742,2.354248-6.0554943,5.688324-6.0554943,3.2366943,0,4.7074432,2.8431454,4.7805023,4.5593319,0,.1967697,0,.2454948-.1217346.4169102-.1227417.1470795-.2211609.1227455-.3681793.1227455-2.4759827-.0730572-4.9529266-.0973911-7.1347504-.0487232-.0486603.2201385-.0984039.4655762-.0984039.8824844ZM189.4970856,25.8219414c.1958008-.024334.2211609-.1714153.2211609-.392519-.0740814-1.3723946-.6623535-2.9658928-2.0844421-2.9658928-1.3237152,0-2.354248,1.4220848-2.721405,3.4324894,1.7161865.0486679,2.8684998.0486679,4.5846863-.0740776Z"/>
        <path d="M193.7359314,23.5174294c-.2697754.024334-.3184967,0-.3428345-.2698269-.0243225-.2697716.0243378-.3184967.2941742-.3671627.9564972-.1967697,2.7700806-.6866798,3.9223328-1.1035881.1724396,0,.319519.0984116.319519.2200813-.0253601.6867371-.0740204,1.4220829-.0740204,2.4029236.7353973-1.3236694,1.7649078-2.6970272,3.1626587-2.6970272.8337555,0,1.3490295.319458,1.3490295.7607002,0,.9808426-.7354126,1.8389931-1.3246918,1.8389931-.5386353,0-.8824921-.5396557-1.3723907-.5396557-.2941742,0-.6380157.1227474-1.1279297.7354031-.4655762.5639896-.686676,1.2263355-.686676,2.1574306v2.9912472c0,1.4707508,0,2.2558422.1714172,2.5986729.1967621.3925743.5883179.3925743,1.4464111.4665947.1470795,0,.1724396.0487251.1724396.3184967,0,.2201385-.0496979.2444725-.1724396.2444725-.9311523-.024334-1.9606628-.0730591-2.7700806-.0730591-.8337555,0-1.9617462.0487251-2.8684998.0730591-.1470795,0-.195816-.024334-.195816-.2444725,0-.2697716.0487366-.2941628.195816-.3184967.7353363-.0740204,1.1279144-.0740204,1.2993317-.4665947.2210999-.416853.2454376-1.17659.2454376-2.5986729v-3.6282387c0-.8834476-.0496826-1.5447731-.1967773-2.0113697-.1227417-.4412422-.4168396-.5629673-.8337555-.538578l-.6126556.0486679Z"/>
        <path d="M208.4689636,28.960268c.2697754.7607594.3914948,1.2019444.6369934,2.0347404.3184967-.8581505.4909363-1.2739811.7596741-2.1574879l1.0305939-3.2113285c.3914948-1.2263355.5142365-2.0600948.3184967-2.4272575-.1714172-.3184948-.6126556-.4169083-1.2750092-.4909306-.1227417-.024334-.171402-.0486679-.171402-.2941628,0-.2444725.0486603-.2941608.1957397-.2941608.7110138.0496883,1.6431885.0740795,2.3045044.0740795.7110748,0,1.4220886-.0243912,2.0595856-.0740795.195816,0,.2444763.0496883.2444763.2941608,0,.2454948-.0486603.2698288-.2444763.2941628-.4163361.0496883-.9072723.2454357-1.2501526.5892868-.4168549.4412422-.7850342,1.1766453-1.2262726,2.3289013l-1.6421661,4.5604115c-.4655762,1.2750015-.6380157,1.8146019-1.0295715,2.8684998-1.2506714.5152626-1.3733521.5639305-1.496109.5639305-.0984039,0-.171402-.0486679-.2201385-.1470795-.3438416-1.0295067-.6380005-1.8633251-1.1279144-3.2123508l-1.7405701-4.6334114c-.5396118-1.3490257-.809433-2.1330967-1.1532898-2.525671-.3184967-.3184948-.5882721-.3428288-1.2993317-.3925171-.1470795-.024334-.1957397-.0486679-.1957397-.2941628,0-.2444725.0243225-.2941608.1957397-.2941608.9321747.024334,2.0104065.0740795,2.8198242.0740795.8580933,0,2.0346832-.0243912,2.9668579-.0740795.1714172,0,.195816.0496883.195816.2941608,0,.2454948-.0243988.2941628-.1714783.2941628-.686676.0253544-1.2262726.0740223-1.3733521.416851-.1217346.3439064.1724243,1.1279221.686676,2.5013371l1.2019958,3.3340759Z"/>
        <path d="M216.6539764,26.1161022c0-.9311523-.0243225-1.6178322-.1226807-2.0834084-.1217346-.3925171-.367218-.5395985-.9068146-.4909306l-.6369934.0496883c-.2454987.024334-.2941589.024334-.319519-.2697697-.0243378-.2941628,0-.3195171.2698212-.3682423.9564514-.2200813,2.8197784-.7353458,3.9720306-1.1279202.1714172,0,.2941742.0984116.2941742.2454929-.0730133,1.7892456-.0973358,3.1626625-.0973358,4.3392506v3.2123508c0,1.4707508,0,2.2304878.171402,2.6230068.195755.3682404.6126099.3682404,1.3977051.4169083.1470795.024334.171402.0984116.171402.3184929,0,.2454948-.0243225.2941628-.171402.2941628-.8834534-.024334-1.8886261-.0730591-2.7224426-.0730591-.8084106,0-1.9363251.0487251-2.7700958.0730591-.1957397,0-.2454376-.0486679-.2454376-.2941628,0-.2200813.0496979-.3184929.2211151-.3184929.7110138-.0486679,1.1035767-.0730019,1.2993317-.4169083.2454987-.416853.1957397-1.2009239.1957397-2.6230068v-3.5065117ZM219.3510742,16.6281738c0,.8580933-.8337708,1.6665001-1.6178284,1.6665001-.8581085,0-1.691925-.8084068-1.691925-1.6665001,0-.8581505.8338165-1.6431866,1.691925-1.6431866.7840576,0,1.6178284.7850361,1.6178284,1.6431866Z"/>
        <path d="M230.6769714,22.2910957c.4909363.1967678.980835.5639877.980835,1.1532764,0,.8824844-.2697754,1.6178875-1.0782318,1.6178875-.7353516,0-1.1776123-.9321728-1.4717712-1.5204964-.2941589-.5395985-.6613312-1.0295086-1.2993317-1.0295086-1.8876648,0-2.8441772,2.1330967-2.8441772,5.1486778,0,3.1869946,1.790329,4.8058491,3.4081573,4.8058491,1.4464264,0,2.2315063-.5152664,3.1139374-1.7162457.122757-.1967697.2454987-.1714153.4412537-.024334.1967621.1217251.2210999.2200813.1470795.3671627-1.005188,1.7162437-2.4515991,2.574337-4.4376678,2.574337-3.3097382,0-5.5655823-2.4515896-5.5655823-5.8840237,0-3.3838215,2.4516449-6.0554943,5.6142578-6.0554943,1.4474335,0,2.3299103.2687492,2.9912415.562912Z"/>
        <path d="M235.8713074,27.6609325c0,3.2366829,1.9860077,4.854517,3.5065155,4.854517,1.5934906,0,2.5003052-.5396004,3.4080963-1.7649136.0730591-.0984135.1714172-.1227474.2444763-.1227474.0740204,0,.1481018.0487251.2210999.0984135.0984039.0730019.1957397.1714134.1957397.2444725,0,.0496883-.0486603.1470242-.1216583.2697716-1.1279297,1.7405758-2.5013428,2.4272556-4.536087,2.4272556-3.3837585,0-5.6639404-2.5002575-5.6639404-5.8840237,0-3.309742,2.3542633-6.0554943,5.6882782-6.0554943,3.2367401,0,4.707489,2.8431454,4.7804871,4.5593319,0,.1967697,0,.2454948-.1216583.4169102-.122757.1470795-.2211609.1227455-.3682404.1227455-2.4759369-.0730572-4.9529266-.0973911-7.1347046-.0487232-.0487213.2201385-.0984039.4655762-.0984039.8824844ZM240.6771545,25.8219414c.1957397-.024334.2210999-.1714153.2210999-.392519-.0740204-1.3723946-.6623383-2.9658928-2.0844269-2.9658928-1.3236694,0-2.3542023,1.4220848-2.7214203,3.4324894,1.7162476.0486679,2.8684998.0486679,4.5847473-.0740776Z"/>
        <path d="M248.1283569,28.1761971c-1.7902679-.8337612-2.844162-1.4220829-2.844162-3.5308456,0-1.373415,1.1522522-2.942522,3.8736725-2.942522.6126556,0,1.3237305.1470242,1.7649689.2454357.4909363.0984135.980835.0984135,1.6188507.024334.0486603.8581505.1216736,2.0347404.2200775,2.8441658,0,.1470814-.0486603.1967697-.2698212.2211037-.2444153.0487251-.2941589-.0496883-.3671722-.1714134-.6623383-1.3490257-1.6919098-2.4769478-2.8684998-2.4769478-1.3734131,0-1.9130096.7353477-1.9130096,1.7405796,0,.6866779.5395966,1.2019444,1.8389893,1.7415981l.8580933.3671646c2.1331024.9321728,3.359436,1.6675186,3.359436,3.8493404,0,1.6919098-1.2750092,3.5551777-4.3159332,3.5551777-1.372406,0-2.4759827-.2697678-3.4811554-.686676-.2211151-.7597389-.4412537-1.887661-.5396118-2.6727543,0-.1714134.0243378-.1957474.2454376-.2200813.2454987-.024334.2698364-.024334.3428955.1470814.8094177,1.5934963,2.1574249,2.7214203,3.4324341,2.7214203,1.4474335,0,2.1331024-.9068184,2.1331024-2.1818218,0-1.0548649-.8327484-1.4961071-2.254837-2.182785l-.8337555-.3915539Z"/>
        <path d="M271.9070435,26.5330105c-.8094177-.0487251-1.8633118-.097393-2.7954407-.097393-1.0295715,0-2.0104065.0486679-3.039917.097393l-.9311218,2.5743389c-.5396729,1.4464169-.4909363,2.182785-.2698364,2.7457523.2201233.5152645,1.029541.6866779,1.9119873.7850933.1470642,0,.2210999.0486679.2210999.3184967,0,.269825-.0740356.3184929-.2697754.3184929-.9078369-.0486679-2.1574707-.0486679-3.0652771-.0486679-.8581543,0-1.7648926,0-2.5743408.0486679-.2201233,0-.2698059-.0486679-.2698059-.3184929,0-.2698288.0496826-.3184967.2698059-.3184967.6623535-.0984154,1.0792236-.4169083,1.4464417-.7597389.4909058-.4909306.9564819-1.3977489,1.4960938-2.8684998l2.9414978-7.9441185c1.1532898-3.0896606,1.3734131-3.8493977,1.7659302-5.1487341l1.9364014-.8824272c.1724243,0,.2697449.048667.319458.2200823.4899597,1.5204964.9311523,2.7457523,2.034729,5.9581032l2.7701416,7.9928436c.4909363,1.4464169.8337708,2.3045673,1.2262878,2.7954998.4169006.5142441.6623535.5629654,1.5935059.6369896.2698059,0,.3184814.0486679.3184814.3184967,0,.269825-.0486755.3184929-.3184814.3184929-1.0538635-.024334-2.4272766-.0486679-3.4811707-.0486679-.9565125,0-2.4029236.024334-3.4577942.0486679-.1714172,0-.1957397-.0486679-.1957397-.3184929,0-.2698288.0486755-.3184967.1957397-.3184967.9321899-.0486679,1.5447693-.1470795,1.691864-.6369896.1714172-.5396004.0243835-1.2263355-.4411926-2.5753613l-1.0295715-2.8928337ZM270.0924377,21.2615871c-.5639648-1.6178322-.7597351-2.3289032-1.029541-3.2113304-.3428345.9554863-.5396118,1.5934982-1.1036072,3.1626053l-1.5690918,4.3393078c.8094177.0496883,1.7902527.0496883,2.721405.0496883.7850952,0,1.7416077,0,2.4526062-.0496883l-1.4717712-4.2905827Z"/>
        <path d="M286.024353,31.4372139c4.2662659-.0496883,4.7572021,1.9363861,4.7572021,3.285408,0,1.9860153-1.1776733,4.437664-6.399353,4.437664-3.2854004,0-5.1741028-1.397747-5.1741028-2.9669113,0-1.3490257.8338318-2.1818199,2.7224426-2.8928337-1.4960938-.4169083-1.9373474-1.0549202-1.9373474-1.8389359,0-1.0052319.8825073-1.6919098,2.67276-2.4273148-1.8146057-.4909306-3.0895996-1.4464169-3.0895996-3.4577866,0-2.0104065,1.7902527-3.84832,4.5116882-3.84832,1.3479919,0,2.034729.2941036,2.6970825.5882664,1.6908264,0,2.9414978-.0983562,3.9466858-.1967697.0983887,0,.1714478.0740795.1714478.1714153l-.342865.7607574c-.0486755.097393-.0983582.1714153-.1957703.1714153-.8824158-.0740223-1.5691528-.0740223-2.5743103-.0740223.7109985.5892868,1.1278992,1.3976917,1.1278992,2.3298645,0,2.1087627-1.4960938,3.7509842-4.5360107,3.7509842-.2941589,0-.5883179-.0243893-.8337708-.0487232-.8338013.4899101-1.2506714.8581505-1.2506714,1.495142,0,.5882664.5639648.7850914,1.4707642.7850914l2.2558289-.0243912ZM284.4552002,33.5946999c-.5142517,0-1.1765747-.0496864-1.6665039-.0984116-.1967773.1470795-.3438416.2454948-.5152588.4412422-.4899597.6380119-.6624146,1.1035881-.6624146,1.9130135,0,1.4950867,1.2750244,2.5743408,3.2854309,2.5743408,2.3055115,0,3.653595-1.1532784,3.653595-2.7954445,0-1.0295639-.318512-2.0347404-3.1140137-2.0347404h-.980835ZM282.1993713,25.5034447c0,1.8633251.7850647,3.0896606,2.0844116,3.0896606,1.2506714,0,2.0347595-1.2020016,2.0347595-3.0896606,0-1.8389339-.7840881-3.0896034-2.0347595-3.0896034-1.3479919,0-2.0844116,1.2993374-2.0844116,3.0896034Z"/>
        <path d="M294.602478,27.6609325c0,3.2366829,1.9860535,4.854517,3.5065002,4.854517,1.5935059,0,2.5003052-.5396004,3.4081116-1.7649136.0730591-.0984135.1714172-.1227474.2444763-.1227474.0740051,0,.1481018.0487251.2210999.0984135.0983887.0730019.1957397.1714134.1957397.2444725,0,.0496883-.0486755.1470242-.1216736.2697716-1.1279297,1.7405758-2.5013428,2.4272556-4.5360718,2.4272556-3.3837585,0-5.6639404-2.5002575-5.6639404-5.8840237,0-3.309742,2.354248-6.0554943,5.6882629-6.0554943,3.2367554,0,4.707489,2.8431454,4.7804871,4.5593319,0,.1967697,0,.2454948-.1216431.4169102-.1227722.1470795-.2211609.1227455-.3682556.1227455-2.4759216-.0730572-4.9529114-.0973911-7.1346741-.0487232-.0487366.2201385-.0984192.4655762-.0984192.8824844ZM299.4083252,25.8219414c.1957397-.024334.2210999-.1714153.2210999-.392519-.0740356-1.3723946-.6623535-2.9658928-2.0844421-2.9658928-1.3236694,0-2.354187,1.4220848-2.721405,3.4324894,1.7162476.0486679,2.8684998.0486679,4.5847473-.0740776Z"/>
        <path d="M303.5985107,23.4930954c-.2455139.024334-.318512,0-.3428955-.2698269-.0253601-.2698288.0243835-.3184967.2941589-.368185,1.005249-.1957474,2.7701416-.6857147,3.8737488-1.0782318.1470032,0,.2940979.0984116.2940979.1957474-.0486755.6867371-.0486755,1.4464169-.0486755,2.0844288.8580933-1.4707508,2.2304993-2.3288441,3.7996521-2.3288441.7353516,0,3.5795288.3914967,3.5795288,3.5054913,0,.9067612-.024353,2.1330948-.024353,2.7214184v1.6918545c0,1.4707508.024353,2.2315083.1957397,2.5986729.1724548.3682404.5639954.3925743,1.2750244.4665947.1470642.024334.1967468.0730591.1967468.2941628,0,.2201385-.0243225.2688065-.1967468.2688065-.9067688-.024334-1.8379211-.0730591-2.6716919-.0730591-.8581543,0-1.8633118.0487251-2.7955017.0730591-.1714172,0-.1957397-.0486679-.1957397-.2688065,0-.2454376.0486755-.2941628.1957397-.2941628.6623535-.0496864,1.0539246-.0740204,1.2506714-.4665947.1957703-.392519.1957703-1.17659.1957703-2.5986729v-3.3340759c0-.7110138.0496826-1.3490257-.2941895-2.1087627-.3184814-.7353477-.8337402-1.2262783-1.7892456-1.2262783-.8834229,0-1.7415771.6136208-2.2071533,1.3976917-.4411926.735405-.5142517,1.1766472-.5142517,1.9616833v3.309742c0,1.4707508-.0253601,2.2315083.1470947,2.5986729.1957397.3925743.5883179.3925743,1.3479919.4665947.1714783.024334.2211609.0487251.2211609.2941628,0,.2444725-.0496826.2688065-.2211609.2688065-.8580933-.024334-1.8146057-.0730591-2.6230164-.0730591-.8834534,0-1.8886719.0487251-2.8198242.0730591-.1470947,0-.1714172-.0486679-.1714172-.2688065,0-.2454376.0487366-.2698288.1714172-.2941628.7110596-.0740204,1.1035767-.0740204,1.299408-.4665947.1957397-.392519.1713867-1.17659.1713867-2.5986729v-3.6282387c0-.9077816,0-1.6188526-.1713867-2.0600376-.1470947-.4169083-.3428955-.5396557-.7597656-.5142994l-.662323.0487232Z"/>
        <path d="M326.4206848,22.2910957c.4909363.1967678.980835.5639877.980835,1.1532764,0,.8824844-.2698059,1.6178875-1.0782166,1.6178875-.7353516,0-1.1776123-.9321728-1.4717712-1.5204964-.2941589-.5395985-.6613159-1.0295086-1.2993469-1.0295086-1.8876648,0-2.8441467,2.1330967-2.8441467,5.1486778,0,3.1869946,1.7902527,4.8058491,3.4080811,4.8058491,1.4464111,0,2.2315063-.5152664,3.1140137-1.7162457.1227417-.1967697.2454224-.1714153.4412231-.024334.1967773.1217251.2210999.2200813.1470947.3671627-1.005249,1.7162437-2.4516602,2.574337-4.4376831,2.574337-3.3097229,0-5.5655823-2.4515896-5.5655823-5.8840237,0-3.3838215,2.4515991-6.0554943,5.6142578-6.0554943,1.4474487,0,2.3299255.2687492,2.9912415.562912Z"/>
        <path d="M335.7605286,30.2352715c-.5892944,1.4961052-1.0791931,2.7711067-1.5944824,3.8736725-1.396698,3.015583-2.7944641,5.051342-5.0989685,5.051342-.8338318,0-1.0549316-.245491-1.0549316-.6623459,0-.8094254.7110596-1.7893028,1.5205078-1.7893028.5639343,0,.7840576.3184967,1.2252502.3184967.295166,0,.6380005-.0983543.9565125-.4909325.5152588-.6126556.9078369-1.1522522,1.7659302-2.9415016-.4909363-1.1035843-.8580933-1.9373455-1.3977661-3.2854061l-1.8632507-4.6587677c-.613678-1.4220829-.8337708-1.9860153-1.1776123-2.4029236-.2687988-.3428307-.5639954-.4655762-1.299408-.5142441-.1226807,0-.1957397-.0253544-.1957397-.3195171,0-.2444725.0486755-.2941608.1957397-.2941608.9321899.0496883,2.0357666.0740795,2.8441772.0740795.8581543,0,2.0104065-.0243912,2.9425659-.0740795.1470337,0,.2200928.0496883.2200928.2941608,0,.2941628-.0730591.3195171-.1957397.3195171-.6623535.0486679-1.1766663.1470814-1.3237305.4412422-.1714172.3428288.0973816,1.1279221.661377,2.4759254l1.2749939,3.285408c.319458.8094273.4168701,1.152256.5639343,1.6431866.1967773-.4422626.319519-.8337593.6623535-1.7162437l1.2009888-3.2366848c.4665833-1.2750015.4909363-1.9860153.2454224-2.3785896-.2200623-.3671627-.5639343-.4655762-1.2009277-.5142441-.1724243-.0253544-.2211609-.0740223-.2211609-.3195171,0-.2444725.0487366-.2941608.2455139-.2941608.6613159.024334,1.5934753.0740795,2.2558289.0740795.7110291,0,1.3967285-.0243912,2.0834351-.0740795.1713867,0,.2210693.024334.2210693.2941608,0,.2698288-.0496826.2941628-.2210693.3195171-.3925171.0486679-.7354126.1470814-1.0782471.4899101-.4412537.3681831-.8337708,1.0295086-1.3733521,2.4029236l-1.7893066,4.6090794Z"/>
      </g>
      <g>
        <path class="st0" d="M1.1832656,44.9253426s20.8536435,2.2611771,28.8111821-6.4416046c3.8109417-4.1678314,3.6610088-9.3434181,2.5237751-16.1915398-.9673519-5.8253326-1.7383194-10.1843166,3.0456657-14.6223354,4.789135-4.4398003,7.138649-5.8338552,7.138649-5.8338552,0,0-11.52948,1.2326944-17.4937782,9.4014173-4.0058117,5.4836273-3.6585655,13.6409588-3.9565697,16.0273151-.2980423,2.3863544-1.0852432,9.7235184-9.9725914,14.089592,0,0-6.8759775,3.5710106-10.0963327,3.5710106Z"/>
        <path class="st3" d="M46.2726936,18.1134033h-7.4425011c1.3021965,3.5375748,1.7264595,8.7898331.8546486,13.4425602l7.6601181-2.637598.1797218.5218563-7.9661407,2.7429752c-.0597763.277317-.1241646.5521507-.1936302.8238106l8.3928452-2.8898849.1796837.5218945-8.7485733,3.0123882c-.083374.2873878-.172596.5706329-.2676315.8493042l9.249279-3.1847916.1797218.5218544-9.6709061,3.3299561c-.1023178.2647247-.210289.5245705-.324192.778717-.0160408.0357971-.0325432.0713615-.0489693.1069679l10.2771416-3.5387001.1796837.5218544-10.8155785,3.7241173c-3.4564095,6.2414246-12.8279171,9.1003532-12.8279171,9.1003532h28.8567028l-7.7035065-27.7476349Z"/>
        <path class="st3" d="M9.3517551,14.8687553l-.1796856-.5218554,9.483551-3.2654505c.2053318-.3512354.4202347-.6931734.6427689-1.0263157l-9.4731283,3.2618866-.1796856-.5218945,10.1925669-3.5095644c.278904-.3800983.56703-.747489.86236-1.1019011l-10.4017754,3.5815859-.1796856-.5218554,11.309967-3.8943505c.3879242-.4245744.7835579-.8288865,1.1819801-1.2119679l-11.8387556,4.0764389-.1797247-.5218945,13.0420456-4.4907069c2.4508591-2.1345708,4.8318291-3.4870558,5.9264088-4.0619488H11.4547129S3.5336294,27.6023769,3.272624,28.2994232h12.2737522s.017396-7.0204468,1.0434008-11.92519c.3465099-1.6566105.9297314-3.1799479,1.664669-4.5709038l-8.9026909,3.0654259Z"/>
      </g>
    </g>
  </g>
  <g id="_レイヤー_2" data-name="レイヤー_2">
    <g>
      <path class="st0" d="M13.5465818,42.1070219l-.187707,1.3924021h-6.8138208l.187707-1.3342885c1.6202075-1.1715704,2.7592342-2.1513659,3.4164991-2.9382241.6566838-.7880206.9850257-1.6945929.9850257-2.7220415,0-1.3889153-.8821646-2.0839541-2.6464938-2.0839541-.7572203,0-1.3575339.0523022-1.8021031.158069l.187707-1.3935644c.4631655-.1319179,1.0698716-.1975863,1.8206994-.1975863,1.3894964,0,2.4181073.2963794,3.0881572.8891382.6694688.5927588,1.0042032,1.3145299,1.0042032,2.1641508,0,1.2645522-.4364332,2.3838203-1.3092996,3.3578044-.8728664.9751464-1.9415757,1.8910169-3.2049656,2.7476115v.0790345c1.7765331,0,3.5350509-.0395173,5.2743913-.1185518Z"/>
      <path class="st0" d="M20.4940639,38.2099232c0,1.3563717-.6287893,2.5616479-1.8863678,3.6158288s-3.1462709,1.5888261-5.2488213,1.673672l.187707-1.3924021c1.9863572-.0840254,2.8382687-.2417526,3.8174831-.913546s1.4685309-1.5179275,1.4685309-2.5384025c0-1.1064831-.3974971-1.882881-1.1919101-2.326869-.7944131-.4451503-2.2181965-.6671442-4.2701881-.6671442.3504251-3.0033114.525347-5.0547218.525347-6.1548125h5.7346511l-.0563702,1.5708109c-1.2761749-.1842201-2.7842231-.2766208-4.5235634-.2766208-.1691106,1.2581597-.2533753,2.4367037-.2533753,3.5367943,1.9270473,0,3.3583855.3080021,4.2934335.9240064.9356291.6160043,1.4034437,1.5992866,1.4034437,2.9486846Z"/>
      <path d="M24.1786182,39.3404739l.8032232.5300251c-.5034331.2884862-1.0390081.5405215-1.8581229.4880142-.556748-.035689-.9560167-.376877-1.1605767-.6604714s-.2745776-.4794875-.2745776-1.2105567c0-.4742071.0029057-1.0925359.0092982-1.8549864-.1737597,0-.4294596.0092982-.7670997.0278945l.0278945-.6741179c.294636.0185964.5578907.0278945.7903451.0278945,0-.1859636.0156907-.627627.0464909-1.3249903l.7299069-.0743854c-.0528834.6508724-.0790345,1.1181059-.0790345,1.3993757.3039342,0,.7502467-.0151095,1.3389376-.0464909l-.0325436.6927142c-.5578907-.0185964-1.0059466-.0278945-1.3435867-.0278945-.0063925.4683957-.0092982.994905-.0092982,1.5806902,0,.6392497.0351496.7491346.1699732.9548568s.5685094.4526743.9319235.4133587c.291211-.0315044.5040706-.0210029.6768467-.2409304Z"/>
      <path d="M27.8703824,38.5207551s-.2477889.2925294-.5040696.5040713-.7456045.4725662-.7456045.4725662c.3150441-.5040706.6903264-1.3191619.6903264-2.2582778,0-.5021016-.0935629-.8403228-.2812699-1.0158259-.187707-.1743408-.4468937-.2626735-.7787224-.2626735-.4649089,0-.9001798.1603936-1.306394.4788561,0,1.6922683.0122039,2.8359442.0371927,3.4310276h-.8182396c.0278945-.8182396.0418418-1.9735382.0418418-3.4682203,0-1.3075562-.0447475-2.331518-.1348236-3.0730477l.8833269-.0464909c-.0249889.9460896-.0371927,1.8224428-.0371927,2.6313843h.0278945c.4649089-.4091198.9745652-.6136797,1.5295502-.6136797.4957091,0,.8833269.1162272,1.1622722.3463571.2789453.2312922.5282575.6201636.530579,1.1989692.0032537.8112387-.078761,1.1892916-.2966676,1.674984Z"/>
    </g>
    <g class="st4">
      <g>
        <path class="st1" d="M13.5465818,42.1070219l-.187707,1.3924021h-6.8138208l.187707-1.3342885c1.6202075-1.1715704,2.7592342-2.1513659,3.4164991-2.9382241.6566838-.7880206.9850257-1.6945929.9850257-2.7220415,0-1.3889153-.8821646-2.0839541-2.6464938-2.0839541-.7572203,0-1.3575339.0523022-1.8021031.158069l.187707-1.3935644c.4631655-.1319179,1.0698716-.1975863,1.8206994-.1975863,1.3894964,0,2.4181073.2963794,3.0881572.8891382.6694688.5927588,1.0042032,1.3145299,1.0042032,2.1641508,0,1.2645522-.4364332,2.3838203-1.3092996,3.3578044-.8728664.9751464-1.9415757,1.8910169-3.2049656,2.7476115v.0790345c1.7765331,0,3.5350509-.0395173,5.2743913-.1185518Z"/>
        <path class="st1" d="M20.4940639,38.2099232c0,1.3563717-.6287893,2.5616479-1.8863678,3.6158288s-3.1462709,1.5888261-5.2488213,1.673672l.187707-1.3924021c1.9863572-.0840254,2.8382687-.2417526,3.8174831-.913546s1.4685309-1.5179275,1.4685309-2.5384025c0-1.1064831-.3974971-1.882881-1.1919101-2.326869-.7944131-.4451503-2.2181965-.6671442-4.2701881-.6671442.3504251-3.0033114.525347-5.0547218.525347-6.1548125h5.7346511l-.0563702,1.5708109c-1.2761749-.1842201-2.7842231-.2766208-4.5235634-.2766208-.1691106,1.2581597-.2533753,2.4367037-.2533753,3.5367943,1.9270473,0,3.3583855.3080021,4.2934335.9240064.9356291.6160043,1.4034437,1.5992866,1.4034437,2.9486846Z"/>
        <path class="st1" d="M24.1786182,39.3404739l.8032232.5300251c-.5034331.2884862-1.0390081.5405215-1.8581229.4880142-.556748-.035689-.9560167-.376877-1.1605767-.6604714s-.2745776-.4794875-.2745776-1.2105567c0-.4742071.0029057-1.0925359.0092982-1.8549864-.1737597,0-.4294596.0092982-.7670997.0278945l.0278945-.6741179c.294636.0185964.5578907.0278945.7903451.0278945,0-.1859636.0156907-.627627.0464909-1.3249903l.7299069-.0743854c-.0528834.6508724-.0790345,1.1181059-.0790345,1.3993757.3039342,0,.7502467-.0151095,1.3389376-.0464909l-.0325436.6927142c-.5578907-.0185964-1.0059466-.0278945-1.3435867-.0278945-.0063925.4683957-.0092982.994905-.0092982,1.5806902,0,.6392497.0351496.7491346.1699732.9548568s.5685094.4526743.9319235.4133587c.291211-.0315044.5040706-.0210029.6768467-.2409304Z"/>
        <path class="st1" d="M27.8703824,38.5207551s-.2477889.2925294-.5040696.5040713-.7456045.4725662-.7456045.4725662c.3150441-.5040706.6903264-1.3191619.6903264-2.2582778,0-.5021016-.0935629-.8403228-.2812699-1.0158259-.187707-.1743408-.4468937-.2626735-.7787224-.2626735-.4649089,0-.9001798.1603936-1.306394.4788561,0,1.6922683.0122039,2.8359442.0371927,3.4310276h-.8182396c.0278945-.8182396.0418418-1.9735382.0418418-3.4682203,0-1.3075562-.0447475-2.331518-.1348236-3.0730477l.8833269-.0464909c-.0249889.9460896-.0371927,1.8224428-.0371927,2.6313843h.0278945c.4649089-.4091198.9745652-.6136797,1.5295502-.6136797.4957091,0,.8833269.1162272,1.1622722.3463571.2789453.2312922.5282575.6201636.530579,1.1989692.0032537.8112387-.078761,1.1892916-.2966676,1.674984Z"/>
      </g>
    </g>
  </g>
</svg>